<mxfile host="65bd71144e">
    <diagram id="qSBwjlDSh31jhN3Zk8HH" name="Page-1">
        <mxGraphModel dx="898" dy="661" grid="1" gridSize="10" guides="1" tooltips="1" connect="1" arrows="1" fold="1" page="1" pageScale="1" pageWidth="827" pageHeight="1169" math="0" shadow="0">
            <root>
                <mxCell id="0"/>
                <mxCell id="1" parent="0"/>
                <mxCell id="4" style="edgeStyle=none;shape=flexArrow;html=1;endWidth=44.57142857142857;endSize=9.182857142857143;width=28.571428571428573;fillColor=default;" edge="1" parent="1">
                    <mxGeometry relative="1" as="geometry">
                        <mxPoint x="300" y="330" as="sourcePoint"/>
                        <mxPoint x="500" y="330" as="targetPoint"/>
                    </mxGeometry>
                </mxCell>
                <mxCell id="2" value="" style="shape=image;verticalLabelPosition=bottom;labelBackgroundColor=default;verticalAlign=top;aspect=fixed;imageAspect=0;image=https://cdn.worldvectorlogo.com/logos/django.svg;" vertex="1" parent="1">
                    <mxGeometry x="110" y="280" width="148" height="188.63" as="geometry"/>
                </mxCell>
                <mxCell id="3" value="" style="shape=image;verticalLabelPosition=bottom;labelBackgroundColor=default;verticalAlign=top;aspect=fixed;imageAspect=0;image=data:image/png,iVBORw0KGgoAAAANSUhEUgAAAgAAAAIACAYAAAD0eNT6AAAAAXNSR0IArs4c6QAAAERlWElmTU0AKgAAAAgAAYdpAAQAAAABAAAAGgAAAAAAA6ABAAMAAAABAAEAAKACAAQAAAABAAACAKADAAQAAAABAAACAAAAAAAL+LWFAABAAElEQVR4AeydB3xcxbX/j6S1VS1Zli33JheMC24Ugyk2tkPoJZQADiSPPALpQBLIy3v5v1QgJMBLyAvwIIXeQsc2sQ022MYU2xj33m313rWS/ufc1dprWSutdubuvbP3dz6fo1v2zsyZ76x2zp1KBAEBEAABEAABEAABEAABEAABEAABEAABEAABEAABEAABEAABEAABEAABEAABEAABEAABEAABEAABEAABEAABEAABEAABEAABEAABEAABEAABEAABEAABEAABEAABEAABEAABEAABEAABEAABEAABEAABEAABEAABEAABEAABEAABEAABEAABEAABEAABEAABEAABEAABEAABEAABEAABEAABEAABEAABEAABEAABEAABEAABEAABEAABEAABEGhPIKH9DYeu+3G6s1lnsJ7MOpJV7mWw9mSFgAAIgIATBBo50WrWItbdrFtYV7MuY5V7EBAwloCTDkA2U/sq602sZ7A6aQsnDwEBEACBiAm08pMfsT7N+gJrOSsEBIwi4ESlO4AJ3cl6O6u84UNAAARAwGQCVWz8/7I+yFpockZgu7cIJMUwuz5O63usr7Kez4qmfYYAAQEQMJ5AMufgbNZvszazfszawgoBAVcTiFULQB5TkGay01xNA8aBAAiAgDoBcQCke3OvelSIAQTsI5BoX9RHY76Yz9ayovI/igQnIAACcUxAxjTJb96X4ziPyFocELC7C2A+M3qeNS0OWCELIAACIBApgVR+UFoBDrGuizQQngOBWBKw0wG4mTPyD1Y704glK6QFAiAAAt0hIC2sl7HK9MEvuhMQz4JALAjYNQbgEjb+NVYZ+AcBARAAAS8TaOLMX8660MsQkHf3EbDDARjO2ZT+rz7uyy4sAgEQAAFHCMg6AdNY9ziSOhIFgQ4I6B4EKG/8L7Oi8u8ANm6BAAh4lkBvzrmMh0KXqGe/Au7LuO4v4w85i99wXzZhEQiAAAg4TmAIW1DM+onjlsAAEGACOrsAZIW/7ay9QBYEQAAEQKBDAhV8dwwr9hHoEA9uxpKAzi6Au9hwVP6xLD2kBQIgYBqBLDZYWkohIOA4AV0tALKxzz5WOACOFykMAAEQcDmBSrZvGKu0BkBAwDECuloAZMELVP6OFSMSBgEQMIhAJtt6rUH2wtQ4JaCrBeAj5jNDB6OsoZMob9Yt1H/CXErvN4J8yek6okUcIAACHiHQyhv1biwgavSrZ7ilsYb8ZXupducSqvzkCWos2KgeaSCGFXw4R1dkiAcEoiGgwwHoxwnzv5vagMJEXzJNnf8QjZrzLUpI0NUwEQ0ShAEBEDCdQFE10X6Zea9TWpqp4uNHqfjtO6m1uVE1ZtktUH47S1UjQngQiJaAjpp2Nieu5EhI5X/eTxbS6Lm3o/KPtiQRDgRA4CiBHN59JFHHr9vRGPkkMYmyzvwODfq3hZSQpLybuVgnv50QEHCMgI5/EeWm/2lfe5hyx+N/wbFvARIGgTgjIJV/VrI9mUoddT71vfgPOiJX/u3UYQTi8C4BHQ7AOBV8Vp//+beqRIGwIAACIHACgV42OQCSUNaM26ln/wknpNnNG0q/nd1MC4+DwAkEdDgAsqhF1CID/tDnHzU+BAQBEAhDIFW5lT5MxHKbuwMyT7ulkwci+kjptzOiFPAQCHRCQIcDIGsARC0DJs6LOiwCggAIgEA4Asm6Fzpvl1DaGOXfLuyZ0o4pLmNLQIcDoDT/Py1H1sOAgAAIgIBeAj4dv26dmOTrLRufKomsBwABAccI6PgXUWpo86VkOJZ5JAwCIBC/BBKU5iZ1zSUxWendRxKwcZRC1/bjCRDQ4QCAIgiAAAiAAAiAgGEE4AAYVmAwFwRAAARAAAR0EIADoIMi4gABEAABEAABwwjAATCswGAuCIAACIAACOggAAdAB0XEAQIgAAIgAAKGEYADYFiBwVwQAAEQAAEQ0EEADoAOiogDBEAABEAABAwj4DPM3i7NrTiwgXYve4IKNi2lmqK95G+o6TKMnQ/4ktMpvd8I6j9hLuXN/iZlDZloZ3Lktfy/ON/myd62lhYiv+6ZViUIquU/+j619JWMR2AQcJhA3DgALU0NtO7ZO2jX0seotVW22naHiANScXCTpTsWP0Kj59xGU258kBJ9SusnnZA5r+f/BCC4AQIgAAIg0CmBuHAApPJb/sCFVLj5/U4z6/SHrS3NtGPxn6ny0BY69ycLtTkBXs+/0+WK9EEABEDARAJxMQZg7TM/dH3lH/rlKNj8Hn3+7F2ht5TOvZ5/JXgIDAIgAAIeJWC8A2D1eb/3uHHFt3PpX6xuAVXDvZ5/VX4IDwIgAAJeJWC8AyAD/tzU5x/pF0m6A/YsfzLSx8M+5/X8hwWDD0AABEAABDolYLwDkL9xSacZdPOH+RsWK5vn9fwrA0QEIAACIOBRAsY7ALUl+40tuprifcq2ez3/ygARAQiAAAh4lIDxDoC/vtrYovPXVynb7vX8KwNEBCAAAiDgUQLGOwAeLTdkGwRAAARAAASUCMABUMKHwCAAAiAAAiBgJgE4AGaWG6wGARAAARAAASUCcACU8CEwCIAACIAACJhJAA6AmeUGq0EABEAABEBAiQAcACV8CAwCIAACIAACZhKAA2BmucFqEAABEAABEFAiEBe7AaoQaP3ptSrBKeHel5TCOx54wVI1Ey6aoxZeMbTqfvKKySO4wwS6Kv81Bx02EMmDgIsJoAXAxYUD00AABEAABEDALgJwAOwii3hBAARAAARAwMUE4AC4uHBgGgiAAAiAAAjYRQAOgF1kES8IgAAIgAAIuJgAHAAXFw5MAwEQAAEQAAG7CMABsIss4gUBEAABEAABFxOAA+DiwoFpIAACIAACIGAXATgAdpFFvCAAAiAAAiDgYgJwAFxcODANBEAABEAABOwiAAfALrKIFwRAAARAAARcTAAOgIsLB6aBAAiAAAiAgF0E4ADYRRbxggAIgAAIgICLCcABcHHhwDQQAAEQAAEQsIsAHAC7yCJeEAABEAABEHAxATgALi4cmAYCIAACIAACdhHw2RWxKfEm3PuSKabaY+dFc+yJN0axvjg/IUYpIRk7CFz3TKtStKrlP/o+tfSVjEdgEHCYAFoAHC4AJA8CIAACIAACThCAA+AEdaQJAiAAAiAAAg4TgAPgcAEgeRAAARAAARBwggAcACeoI00QAAEQAAEQcJgAHACHCwDJgwAIgAAIgIATBOAAOEEdaYIACIAACICAwwTgADhcAEgeBEAABEAABJwgYLwD4Evp5QQ3LWn2SM1Ujsfr+VcGiAhAAARAwKMEjHcA0nKGGlt0aTnDlG33ev6VASICEAABEPAoAeMdgAET5xlbdAMmfUnZdq/nXxkgIgABEAABjxIw3gHIm/1NSkhMMq74xOa8Wbco2+31/CsDRAQgAAIg4FECxjsAWUMm0ug5txlXfGPmfYcyB49Xttvr+VcGiAhAAARAwKMEjHcApNym3Pgg9Z9gzqY2/SfOpck3/F7bV87r+dcGEhGBAAiAgIcIxIUDkOjrSef+eAGNmfddV3cHSLP/2Au+b9mamNRD29fM6/nXBhIRgQAIgICHCMTNdsBSCU67+U80irsD9ix/kvI3LKaa4r3kr692tDh9KRmU3ncEyYA/6fPX0ezfUYa8nv+OmOAeCIAACIBAeAI6NlNX2lBbdT/w8FnDJyAAAl4nsOagvQR23qP8E6ocgb05ROzxTCAuugDiuYCQNxAAARAAARCwgwAcADuoIk4QAAEQAAEQcDkBOAAuLyCYBwIgAAIgAAJ2EIADYAdVxAkCIAACIAACLicAB8DlBQTzQAAEQAAEQMAOAnAA7KCKOEEABEAABEDA5QTgALi8gGAeCIAACIAACNhBQIcD0KhimL++SiU4woIACIBAhwRalVYo6TDK4262NFQedx3FRUMUYRAEBLQR0OEAKP0X1JYc0JYZRAQCIAACQQJ+mx0Af/n+YFLRHpV+O6NNFOFAIEhAhwNQFowsmmP+xsXRBEMYEAABEOiUQIO/04+VP6zdofzbVaJsBCIAAQUCOhyAnQrp0+73n6DWlmaVKBAWBEAABE4gUKfUOXlCdMff4N+syk+eOP5e96+Ufju7nxxCgMDxBHQ4AFuPj7J7VxUHN9LOpY92LxCeBgEQAIEuCFTa2MNe/tGfqbFwcxcWdPmx0m9nl7HjARDogoAOB+CjLtLo8uPPn72TCjYt7fI5PAACIAACkRBoaSGqrI/kye4/U7tzCZUs+FH3A54YQvm388QocQcEIieQFPmjYZ8s4k/kvyHqXa2kC2D/6heoZ3o29Rk5nRISdPglYe3FByAAAnFOoLiWqLxOcyb5d6p81SNU+PLN1NrcpBo5uyj0HVbdVqrahfAeIhB1pd2O0Uq+Pqvdvagus4ZMoJHn3UIDJs2j9L4jyJeSEVU8CAQCIOBNAi08+n9zPlGDhqFFLY3V5C/bS7Xb/0WVnz6po9k/WCgf8Ml5wQscQcAJArocgNvY+L84kQGkCQIgAAIGEvh3tll5FKGB+YbJLiKgywHozXnaz9rLRXmDKSAAAiDgRgIVbNQwVqwD4MbS8ZBNujrby5kZWgA89MVBVkEABKIm8CcOico/anwIqIuArhYAsSeXdQdrplxAQAAEQAAETiAgC6eNZS0+4RPcAIEYE9AxCyBocg2fyIjWLwdv4AgCIAACIHAcgbv4SgYAQkDAcQI6WwAkM+JQrGCdIRcQEAABEACBowRW8dm5rBrmJxyNEycgEDUB3Q6AGDKUdR1rjlxAQAAEQAAESJr+p7HuBQsQcAsBXYMAQ/Mj2/vNZ1VeKSM0UpyDAAiAgKEEZFeC61j3Gmo/zI5TAjrHAIQikk0u9rJewWpHKwNHCwEBEAAB1xOQFf9uZn3D9ZbCQM8RsMsBEJBfsIojcCmrnelw9BAQAAEQcB0BP1t0K+tTrrMMBoEAE4jF2/mFnM6zrNkgDgIgAAIeIVDK+fwq62KP5BfZNJBALBwAwTKC9QXWM1ghIAACIBDPBGS0//Ws++M5k8ib+QTsGATYEZW9fFM2C5K+sBJWCAiAAAjEGwFZEfWHrDLVD5V/vJVuHOYnln3zvEcXrWf9G6v0jU1mTWaFgAAIgIDJBGRt/z+w3sj6Pqv81kFAwPUEYtUF0BGILL55LetNrNI6EKvWCE4KAgIgAAJKBGR0v2yD/hTrS6xY258hQMwi4KQDEEqqD1/MYj2TdRzraNa+rLK7IFoJGAIEBEDAEQINnKpU7tJ1KbOatrJ+xLqMVQb6QUDAWAJucQBUACo1t73ystr03F279qjYTnffI12GShIPZagEAIGVCOD/RwkfAoOAuQTQ7G5u2cFyEAABEAABEIiaAByAqNEhIAiAAAiAAAiYSwAOgLllB8tBAARAAARAIGoCcACiRoeAIAACIAACIGAuATgA5pYdLAcBEAABEACBqAnAAYgaHQKCAAiAAAiAgLkE4ACYW3awHARAAARAAASiJgAHIGp0CAgCIAACIAAC5hKAA2Bu2cFyEAABEAABEIiaAByAqNEhIAiAAAiAAAiYSwAOgLllB8tBAARAAARAIGoCcACiRoeAIAACIAACIGAuATgA5pYdLAcBEAABEACBqAnAAYgaHQKCAAiAAAiAgLkE4ACYW3awHARAAARAAASiJuCWveT7cQ5ms85gPZl1JKvcy2DtyQoBARAAAScI1HKiJazFrAWs61hXtGklHyEgYCwBJx2AbKb2VdabWM9gddIWTh4CAiAAAhETaOYnV7M+zvoSaz0rBASMIuBEpTuACd3JejurvOFDQAAEQMBkAtJC8CTrfaxlJmcEtnuLQFIMs+vjtL7H+irr+axo2mcIEBAAAeMJpHEOZrL+O2sD66esrawQEHA1gVi1AOQxhRdYT3M1DRgHAiAAAuoEVnIU17MeUI8KMYCAfQRi4QBczOY/y5plXzYQMwiAAAi4ikA+W3Mlq4wTgICAKwnYPQ3wZs7166yo/F1Z/DAKBEDAJgIy1ul9VmkJgICAKwnY2QIglf/fWO1Mw5VQYRQIgAAItBGQ2QLSEvAWiICA2wjYVTlfwhl9jVUG/kFAAARAwMsEZC2B2ayfeBkC8u4+AnY4ADLgby0rmv3dV96wCARAwBkCRZzsNNaDziSPVEHgRAK6xwDIG7+M9kflfyJr3AEBEPAuAVnZ9M/ezT5y7kYCuh2A73MmMdXPjSUNm0AABJwmcBkbcLXTRiB9EAgS0NkFIKNet7P2CkaOIwiAAAiAwHEEZHrgWNaq4+7iAgQcIKCzBeAuth+VvwOFiCRBAASMISAvSt8wxloYGtcEdLUAyMY++1jhAMT11wWZAwEQ0EBgJ8dxEmuLhrgQBQhETUBXC8BX2QJU/lEXAwKCAAh4iMBozqtMlYaAgKMEdLUAfMS5mKEjJ1lDJ1HerFuo/4S5lN5vBPmS03VEizhAAAQ8QqC1lWhjAVGjP5DhloZKaqkto+a6Umqpr6DW5sbAsamOWv311Mz3yM/3GqqopamG7/F5XRk/10BNxTuosWgbb+2j/WW9nq0rYZXNg0TKAgdrW+G6tnM2zGolaOJjdds9Ocr4gaCWt50H71fytYSTzxtZISAQloAOB0Cmt/C/m9qKf4m+ZJo6/yEaNedblJCgq2EibL7xAQiAgGEEWpqbqKGykOrKj1B9eT41VBVRY01ZQKtLrWNT23VddRk18L1mrsipRRbj86SIcyGOgTgEpayyFkFxiBa23RNHRO7L53IO8QgBHSv1zWZWSo6EVP7n/WQh5Y6XqCAgAAJeItDcWEc1xXupoaKQassOBSr5ssNUX5HPWkB1fC4Vfz0rpFsEkvlp0RzWvAhDircUdBIEuOxoKHo45PwQn4uzADGcgA4HQLnpf9rXHkblb/gXCeaDQDgCVgVftIdqivZyRb/PquwD53uplu+hYg9HzpH7SZxq/zad0IkF0oVxkFWcAXEQgud7+VwGOe5hDXZv8CnEjQR0OADjVDJm9fmff6tKFAgLAiDgMAF/fRVVHtlGlYe2UNXhrVRVsJNq2yp7eYuHxB2BFM7R6DbtKHMyaGI/qzgD7XUX3xMHAuIwAR0OwBiVPMiAP/T5qxBEWBCIHYHa0oNWBR+o7DdTFVf6onIfAgIhBGQg14g2nRtyX07FOZAvTNAx2MTnG1i/YMUYBIYQK9HhAGSrGDtg4jyV4AgLAiBgAwF/Qw2V719PZXvXsq6jiv1fWG/48qYPAQFFAuIcDGvT89vFJWMNgs6AHEU3s2JGA0PQLTocgAwVo9JyhqoER1gQAAFFAjKSvmzfOirnij5Y4Vflb+eZb54dPa9IFMEVCAzisKIXhMTh53Oei3nUMfiMz2VrZZndAFEgoDR6vy1dnnUbvVz3jFLw6BNGSBDwIIGWpgYq3f0pFW1fwcfPrAq/hgfoQUDAMALSjbCVdXWISksBvFaGEKnAAYiUFJ4DAQMJSJN9yc6PrQq/ePtKKt62gpqbMP7KwKKEyV0TkDUP1rOuYV3B+gErRqAyhHACByAcGdwHAQMJ1JYcoKJtH1Ixv+EXcWVfeXATtepfxc5AMjDZowSk62BJm77PR3QbhHwR4ACEwMApCJhGQN7m5a2+YNMSyt+4hMr2yMsPBARAoAMC0j3wOWvQIfiQzz29VgEcgA6+JbgFAm4mUF24m46sX0j5rAWb36fmxlo3mwvbQMCtBKTLYDmrOASLWWU6oqdExywATwFDZkEg1gRkDfxCruil0heVefcQEAABZQIyg+3iNpXIZDTsm6xvsErrgMw+iGtBC0BcFy8yZyoBmYJXtPUD2vfR83Tw039SI29sAwEBEIgZAfmHe4f1ZdZ3WeNyHQI4AFyyEBBwC4EKHrS3b+XTtPfDp6xd79xiF+wAAQ8TkC2X32IVZ2ARq2zPHBcSdw5AxYENtHvZEzwoaqm1+YisaOak+JLTKb3fCOo/YS7lzf4mZQ2ZaKs5Xs+/rXBtirycV9nbz2/6+1e/YH1nbUrGk9GmpxJlcUNvKu+J17sXkVzLeWY6UUZa4LwXn/dqO5d78lkar3QvKtc9QjpKfbxVjjwfKhkc53HP8PMSX6hU8TANf0iDchOfV9eFPkFUxT9V/pBZ7NYzHK6WZ22KVvLn1Xxdx8PWJD55Xs7lnnwWfK68KnC/gnu4a9qlcXyKuIqCgEwrfJr1b6ybowjvqiBx4wDIAifrnr2Ddi19zLXTnhISk2j0nNtoyo0PUqKvp9YvgtfzrxVmDCKT+fn7Vj1Hu957zFpqNwZJGp+EVMg5WUR9exP1yw4cc/g8eE+OR+/Lc/xMit5/M+MY1nPDdXEZL7DPk9+K+T22KORc7pXwveB9Oco9cSQgERGQRYjEEXiBtTKiEC57KC4cAKn8lj9woTVQymV8OzSn//jz6dyfLNTmBHg9/x1CdulNWV9/55L/5cr/ecK6+scKSSrvwblEQ3kj2iGscj5sAB/7Bc6HDwy8kR8LgTO7CEirwf583ue3kLXo2PlBfvc9wCr3xVGAHCXAbS70D9Y/s249eteAk7hwAD772+385v+oAbiPmThm3ndp2s1/OnZD4czr+VdAF5ugra105ItFtG3hg1TAc/W9KPJmPoa3fxkzlPeQZZXKfWhbBS9HaZaHmENAuh7ESTjMDsIBPsr5zgNEO0T3B1oazMmNNktbOSb5B3+YdSGrXLtajHcApM/73f+Y4tpm/3ClL90BF/x2PY8JmBDukYjuez3/EUFy6KHWZj+/6T9LW97+HVUeMr67sEuKfTLbKnmp6NsqezlKhS/97xDvEJBxCJZDwM6AOAXb9x27LjWysbzbZbeeQ9zH+jJryMiObsdja4CQ4S22pmNb5DLgz8SlTmWa157lT1rjAVTgeD3/KuzsCisV/96Vz9DmN35N1QW77ErGsXhlUN0pYwI6eSzRpNFEY4cTiQMAAQEhIA7fqeMD2p6IOADiEHyx43iVQYtxJJM5L8+z/pr1t6xPsYYMA+UrF4jxDoAsf2qq5G+QxafUxOv5V6OnOTQ39ctI/g0v/yfJan2mS2Ji4O19cltlH6z0R8hmrRAQiJKAOIozJgU0NIq9hwMOwfrtvF4vqzgIuw8Stbi+IT00Fyecj+I7T7L+mPU/WV9ldU2OjHcAaku4jclQqSlmN1hRvJ5/RXzaghfvWEWfP3Mnlez6WFucsY4ob/CxH+bTebaqvNnLyHsICMSCgDiWopeddyw1meK4dhvv+buB6JONRJ9yT9r+I8c+N+hsHNv6CusnrHeyrmR1XIx3APz15rYb6RgF7vX8O/0fVF+RT+u44pc3f+6LctqciNOX+fDSRHtm25vYjFOI+veJODgeBIGYEJB1GM6dGtDmFqL6JiKZjfDJJqLPRNkh+JwdBIOmLp7O4D5k/Qfr3ayFrI6J8Q6AY+SQsLcJcGW/m8dwrH/+J9RYw5OrXS4yd372qUTnTSc6i3sn5e1eFrWBgIApBJK4SyqdZ4uM5UGlI3ha6GXn8pJ8PLxOFk/azD1un7JDsIqH3q1YR1Ra4epcJbB1X2e9nPWnrI+zOvL2AAeAyUNAoDsEaksO0MeP3kSFW5Z1J1hMn5Wm+7OnEM09g2gOv3NM4cF60qcPAQHTCSRw9ZncI6DBVgEZjCpjVG65gscMcEvBxl1EH6wJqHQfyLRFF0o22yTz169k/TdWHgURW4EDEFveSM1wAgc/e40+feKbrtucR96OpElfKnup9M/iJv3knobDhvkg0AWBYKtAGrcMyKqHdawiwQGr3/0q7+LD3QYyfmA5OwQfrg10GYjj4CK5gG1hN4VuY5VpgzETOAAxQ42ETCYgW/LKIL8dix9xTTZkmVup7K+YFRg4JYvtQEDAiwSkTT2V/x9SuGWggSfb1fIbv7QEiPTke2dPDahcy/LHi1YRLVgRcAoa2pwG+cxBkRE4L7E+yCpjA2IyZRAOAJOGgEBnBGQr3lV/vIYKNr/X2WMx+UzmV198dqDS//JZgc1qYpIwEgEBAwhI94A4AaLSImA5Au1612X/iBsvCqgse/zeJwFnYPFqIhesRSAzBLjzjq5jLbYbORwAuwkjfqMJyEI+H/A+E1X5PCnZIZGFd66ZS3Ttl4hm8SC+0J3nHDIJyYKA6wlIC5mMFZBuARkD0M4PsOyX2TCXnhdQ2X1x5edEbywjepNVdlh0SM7ndFeyzmPdb6cNcADspIu4jSYglf6y355PtaUHY54PGbAnU/RuuoTfVC4MbGMbcyOQIAgYTkBaBGR8gDgCNewEyHiAcCKO9SyeKSN63/eJ3uVughf/FWghCN2mOVx4zffHcnwyXVCcgO2a4z4anecdgNafXnsURjQnCfdKt43BsmCpmvEXzVEL79LQVUe20ftc+deVHY6phSePJLqZK/353EQpO+JBQAAE1AnIYMFMfttv4Bqvpr7r1QVlAO1lswJ6pJhH5i1mZ+DdwBLG6tZEHMMwfnI5K3f6Ec9r0C+edwD0I0WMphOoryyk5b/7cswqf/lxunwW0R03Bqbumc4P9oOAWwlIS0APXv+imp2AxgiH2Q3sS/T96wP6MY/Vf5TH6S9cyTv8xGYmwQBmuZB1JmuRbq5wAHQTRXxGE2huqqcVD11BNUV7bc9Hr7TAvOXv8VQlWYYXAgIgYD8B6V7L5P89GRsgrQHdkTO4W0503xFeveefRM9x1SzLFdssYzj+N1lnsXJHhj5hFBAQAIEggXVP/5BKdnwUvLTlOKQ/0R/u4H3U+cfjobtQ+dsCGZGCQBcEZNpgFjsCMk6guzJ8INFvvku0/iWiX9xONKhfd2Po9vMzOMR93Q7VRQA4AF0AwsfeIVDAO0vuev9x2zKcncn/wd/jfsTXeDeQ+fzjk2FbUogYBEAgAgIy8E+cgGhXycxMJ/o2DyP79Dl26tmZlyW3bZQfcNwX6YwfDoBOmojLWAKyqdInj3/Dlg19UnkU8t1f51E8bwSOcg0BARBwBwHZE8NyAqJoCQjmoCc7EjJj56OnAmMFUuz5HxcLH2Pl4Yx6BA6AHo6IxXAC2xc9bMt0v+u+RLTj9cCbv7QAQEAABNxHwJolwG/z0XQHhOZGFur6r1t56eFneLGu2aGfaDsfwjFJS4AWgQOgBSMiMZmArPS3dcEftGYhlxf2fPl+ohfuxXQ+rWARGQjYRMDHtWEv3kRLh8jMgf/7OdFf/5tIVh7ULHdzfFoW/oYDoLlkEJ15BHYve4Kaasu1GX71XN6NjAcHyRECAiBgDgHZN0BnF52sMrjib4GVBjVSEJfiJh3xwQHQQRFxGE1g70pur9Mg0owog/zkzR8b82gAiihAwAECaTw7INpBgR2ZKwMDpSVABglqXMb7lo7S6u49OADdJYbn44pA+f4vqOIAr+6hKPLW8Pb/BAb5KUaF4CAAAg4SCC4frNsEGST49K95oyI9AwQnsX0TVW2EA6BKEOGNJlC0dbmy/eLVv86beMrufBAQAAHzCSTz/7TOVoAgkTlnED3FToCmloBzgvFGe4QDEC05hIsLAiW7PlbOhyzm8yVZpgMCAiAQFwSkFUCcADtkNm829Mtva4n5TNVY4ACoEkR4owlIF4CKnD2FFwK5RiUGhAUBEHAjAU1v6R1m7ZYriE5XbsBHF0CHcHETBCIl0FhdEumjHT73Yx6Lqzp3uMOIcRMEQMBRAjKo1y6R34zv8h4gisKTDdXExiyqGYbQIBALArIGgIqcO00lNMKCAAi4lUAiV9J2ypmnKMeu7ADY1MuhnLGYRZBwL0/Y9rJcNMfLuSfZ/Q8CAiAAAgYSUF4SGC0ABpY6THYPgeVr3GMLLAEBENBHoKVVX1wdxbRqfUd3Y3sPDkBseSO1OCPwwFO27B8UZ5SQHRAwj0Bzi302t7Jz8cgL9sUfacxwACIlhedAoAMCK9mLf+TFDj7ALRAAAaMJNPrtM///XuUthDfZF3+kMcMBiJQUngOBMATueoho0aowH+I2CICAcQTkDd0uB+C9T4j+31/cgQQOgDvKAVYYTKCJ3xSu5MWA3llhcCZgOgiAwFECDU1ELTZ0AfzrI97F57+I/M1Hk3L0BA6Ao/iReLwQqG8kuvwOovv/Hi85Qj5AwJsE5O2/lv+fdctTbxPdzJV/gw1xR2srHIBoySEcCLQjIIOG7vkT0SU/IDpc1O5DXIIACBhBoLZB79t/cTnRN35OdNcf3PPmHywI4x0AX0qvYF6MO/ZIzVS22ev5VwZoQwTSFTCBlwd+nAf6QEAABMwhIP3+dRrf0N9cRjTz67xT6IfuZGC8A5CWM9SdZCOwKi1nWARPdf6I1/PfOR3nPi2vIvrWb4iuvZvoQIFzdiBlEACByAhIv3xVXWTPdvXUoUKiW34R0NKKrp527nPjHYABE+c5R08x5QGTvqQYA5HX868M0OYIXl5CNPrygDNQWGpzYogeBEAgKgLSfVfJlb/0/6tIGTv+v3qcaMZNRPL273Yx3gHIm/1NSkhMcjvnE+wTm/Nm3XLC/e7e8Hr+u8vLiecbeUSxdAeMYkdAxghU1TphBdIEARDoiICfK/+KGrV+/zoeN/DH54lOuyFwrOdrE8R4ByBryEQaPec2E1gfZ+OYed+hzMHjj7sXzYXX8x8NM6fCVHPFL7MExl1F9Lt/EEk3AQQEQMA5AtLnX1HNlX+Ub/7yP/wnXtHvtBsDb/4Sl0miY7+jKNEFMF33jFJwK5IWfyN98MBFVLBpqRHs+0+cS+f+eAElJvXQYq/X868C8cX5Ov4ForMgI43ohi8T3cE/HuNGRBcHQoEACERBgKsdmeonI/6jkX1HiJ56i+jvb3LXAbceOChKP2BKgdsyrVSD63AAxA6pBD9/9i7aufQv1NrCozlcKNLsL2/+k2/4vbbKP5hNr+c/yKG7RycdgKCtidwOd9m5RD/k5sPzpgfv4ggCIGAHAXnbr+b+/mhW+pMNfB57hVf+XBl9q4HmPCnV4UqB2zLiCgcgCLXi4Cbas/xJyt+wmGqK95K/3tk2GV9KBqX3HUEy4E/6/HU0+wfz2tHR6/nviEln99zgAITad9Jwoq9ewAuGXEI0cnDoJzgHARBQJSAr/FXzDuDdGex3pJjoreVEzy4g2rxb1QLt4ZXqcKXAbVlxlQOgHS8ijGsCbnMAgrClVeDMSbxsKDsC0k0g3QUQEACB6AjIKP8arvgjfeuX1fre5f09XvwXkazd75alezvIvVIdrhS4zRg4AB2UCm6ZQcCtDkAovV5c+V89l+g6njU6+1SinnqGjoQmgXMQiEsCUjlJP7+1uE8XNZU4ByvWEr2+LPDGL4N2DRClOlwpcBucLrB2jlDXGIDOU8GnINAxARMcgFDL01KIzj+N6Bp2CC6fRZSVEfopzkEABCwCXCvVc3O/taxvJzWUTN/7YA3P2V8e6Nd3eEBfNIWnVIf7okkRYUAABJwhUMvNmLKsqGhyT6JzpvLeA+cEHIJB/ZyxCamCgFsISF0vzfcywj/cbn6llUSLVxPJznxL+Cj/U14VJe+hDVon/lXXWNEC0DUjPGEfAdNaAMKRkDEDp55MNOf0gM6cQpTCDgIEBLxAQCoh2ZFTmvrbV/ziEHy8kehDbt6Xt/3Pt7lmBL+OolGqw5UCt1kPB0BHMSIORwjEiwPQHl5qMtG0cURncwvBXHYKZHphD7T3tceEa8MJyOA+aeqXyj84sl8cgA07iZZzZf/xBiKZumdIf340paFUhysFbrMWDkA0xYYwriCg6gBMGJNJm3Zwm6LLpU8mDyDksQPnTeN1yicRTTkJDoHLiwzmhSEgFY4sry1v+zI6v4kH723kCn/NZqKVnwdU1uR3u0wYRbRpl7KVSnW4UuA20+EAKJchInCKgKoD0LTjavrrS3voP/+wkYpKo1xWzIHMS2vAKWN4q9LJRNO560DGEmDdAQcKAklGTCD4tr//CNHarUTrtxN9wk370rxvytr7ktlsdsbvvjmwAmjyjIizH+5BpTpcKXCbRTKEghsco5OvPFFJJu9pH12uEcotBFQdgNbd11hZKS1vpJ8/tIkee24Xv5Uo+cSOoRk2gNceOCWgp40nmsQOgkxBhICAUwRkkx6p7KUpXyr6zzYRHSx0yhq1dH1JRLddTfSL24ikRU4kgbvmFEWpDlcK3GZ4ER/7RpuJC+/fZPvqeNHahnDxT0CXAxAktXF7Bd193wZasIxfUwyXBP51yBtMNHksOwOjAy0Gci735DMICOgiIP33uw8F3urX7wgcv+Dj3sPH+vZ1pRXreOR/5eKzeSOw7xONzzs+dacdAB3Dgso4S1E7APkbF8MBOP47gSuDCUwcm0Xv/PVsWruxjH795y30xuLDPCrZzBYB+VHedTCgr753rFCkVWBiiEMwkfsyZQnj3D7HnsEZCIQjUFhKtG0f99tz/7c040tFL3348bZNtszMuXI20c9uIZrKY27cKDr8+AWcsQujzZxsZ3vBbz8n2SgHAgKxJqC7BaC9/TJA8LfsCLz4zgFqNrRroH2ewl3LokRjhhGNHspH1rHsFMi1aLDJM1xY3I8vAjLXfsf+gG7nyn7HAaKdrHLPtC1zu1sySVzxy34eP/0GkQz060ycbgHQ4QA8yBm8o7NMdvXZtJsfsXbJ6+o5fA4CugnY7QAE7d2xt5oefHI7Pfv6Pqqq4WHLHpOcrIBjIE6BOAjDBxIN7seaSyRjD9JTPQbE8OzW8G56+/OJDnF//CHuBJbtcaWCl8pejiUVhmcwCvOlZWz+RUR3zg98xyOJIh4cABkF9VIkmQ33TKKvJ5374wXUf8KccI/gPgjYQiBWDkDQeKn8n2En4C/P7KIN2zz4KxkE0e7YuxfREHYGhrIzII7BkP58zioOQvB+Znq7QLi0hYAsh3uAK3cZbCcV/IECPmeVij5Y6ZcbMM3OFjgdRCqzaW7nwX03cuXf3UGz8eAA8L8r8deDlFoTxAmYcuMfaPSc29Ed0MGXDLfsIRBrByA0Fys+K7YcgX8uOsjLl7aEfoTzDgjIyoY5vVm5NaEvH/tlB47B6+BnMhYheE/2TvCyyDK3xeWBN3Lpe5c3c+u67Z6cF/EoruAzJXwti+pAOicgy3DLfhxS8Z81ufNnO/s0HhwAyd9K1rM6y2ikn2UNmUAjz7uFBkyaR+l9R/AUQex2Eik7PNd9Ak46AEFri8sa6KV3DtJzb+ynVWuLj65oFvwcx+gJyIqI0nIgXQwyRkEcglTWbG5xkKN8Lq0P1n0+l2fkWbmWt7mkpED4UAvkGRngFRSJI3TZ5Y7CyFt1c3MwRKCSlY1ogiKr17XvGw+GkcFxUpFLs7s8I+HkWt7C5byOz2XhGznKfXlGnpXwoWkE08IxOgIyml/WzbjhQqJr5wWczOhiOhYqXhyA2zhLfzmWLZyBgDcIBNcB0JXbA0dq6dVFh+jp1/bRmo38agYBARBwlIBM3ZO3/a9dTDRqiF5T4sUB6M1YeHwnsS8NAQHvENDtAISSkzEC0irw+uJDtHUXOl1D2eAcBOwkcPLoTLpi3iC6ftZWaw0Mu9KKFwdA+NzP+hO7QCFeEHAjATsdgND87jlQQ4tXFNBbSw/Tvz4s4LXQMWYglA/OQUCFQFJSAs2YkkOXzhlIl80dROIAWFL2skq0XYaNJweAx+sSL+lAbeS6zDseAAHjCcTKAQgFVVbRSIs+yKc3lxymdz8oILmGgAAIdI9An9496YJzBlgV/pfPG0C9M3ucGAEcgBOZdHLnB/zZw518jo9AIK4IOOEAhAKUVQbXbS6nFZ8W08o1xZZDUFndFPoIzkEABJhAakoSzZzel+bOzKWZp/alM6b04S2yQ0ZzdkQJDkBHVMLe4zGztIJ1Rtgn8AEIxBEBpx2A9ihlOuFHa0to6aoC1kL6dH2psZsTtc8brkGgOwR83Kx/+uQ+NGdmf5pzVi7NmJpDyT27qPDbJwAHoD2RLq95nS9ax5rT5ZN4AAQMJ+A2B6A9ztq6Zlq7qYzWbCizWgiWrS4yatvi9vnBNQiEI5CZ0cOq8GeemkPTJ2bTuaf3o6xeHTTrh4ugo/twADqi0uW9L/MTb7Iq0u8yHTwAAo4ScLsD0BGcbburaPW6El5zoMRqLdiysxKtBB2Bwj3XEpC3+/FjMunMaTl0Jr/Zy3HsSBsmocEBiPo78DUO+Q9WpRUCo04dAUEgBgRMdADaY6mrb6YvtlbQOm4pWLup3NrJULY1xuqE7Unh2gkC0mw/6aQsmsZv9VPH97aOci19+rZLnDsAPhsBPt0W95N8REuAjaARNQioEJAfUhkQJRqUJn8LbdpeaXUfrN9SwecVtJlbCo4U8lJzEBCwicDA3BQaz1PwJvC22lO4spcKf8LYzK4H69lkT7xHa6cDIOzECShmfZaVV+6GgAAImEBARkfLD7BoqMiUQ3EENvM2x8Hjlp1VJCsYQkAgUgJDB6bxXPteNGFMVuDIFf7Jo3pRdhYvsg+JGYFYNc+P4By9wHpGzHKGhEAgBgTioQtABybZ5XAnb3m8c1817drPykfrfF8NHcyvxf4GOiAbFIesmz9kQBqNHpFBo4al06jhGTSaddQwPvK9Xul2v3tqghXnXQCxcgCkNKTD5tusv2LNYoWAgPEE4AB0XYT1Dc3sFNRYTsHegzXcWlBntRgc5OO+QzV0pKieN8pp7ToiPOEaArJy3sB+KTR8cDoNHZRqVfZDB6bSiCHpVkWfx5V+SrL85BsucAC0F6BsH3wH63dYsWqgdryIMJYE4ACo0/Zz5X+ksI72H6619FB+HR0uqKfCknprzEFBcT0VFDeQ7JoIsZ9Avz7JlJuTTAO4ghfNzUmhwQNSaXD/VKuyHzYojQbmppKMxI97gQNgWxFLK8C1rDexylbC3VyhgUNAQMBhAnAAYlcAMjCxkB0BaTHIZy0qbaASdgpKyxuplMcmyLGkrJHKKgPnci1dE14WaWqXJW8t5f51OeZkJ1M2L3sbPJfKvn/fFOuNPrdvMgbchX5h4ACE0rDtXIYfz2I9k3Uc62jWvqwysZN324aAgDsJwAFwZ7kErRKnobyyiaqq/XxspBpeGKmanYLq2rbrWr7m8+B1K/dEBPdWEOfB728lmSYp3RgSlzwnInE08Wftxc/PhHM6pDL2dbD0bA9fAmW09YlnpPmsCliaz2V2ho8/C/aXywA56VvvndnTupee6qP0tKRj1xw2PbXtOsNnrW3f5VK37TOA6+MJwAE4nocLr078L+yGka+8/EY3nj7x0V279px4sxt37r7nh914usNHPdAO12G+dd1U+v7AAdBVDIgHBFxIIM4dADS7u/A7B5NAAARAAARAwG4CcADsJoz4QQAEQAAEQMCFBOAAuLBQYBIIgAAIgAAI2E0ADoDdhBE/CIAACIAACLiQABwAFxYKTAIBEAABEAABuwnAAbCbMOIHARAAARAAARcSgAPgwkKBSSAAAiAAAiBgNwE4AHYTRvwgAAIgAAIg4EICcABcWCgwCQRAAARAAATsJgAHwG7CiB8EQAAEQAAEXEgADoALCwUmgQAIgAAIgIDdBOAA2E0Y8YMACIAACICACwnAAXBhocAkEAABEAABELCbABwAuwkjfhAAARAAARBwIQE4AC4sFJgEAiAAAiAAAnYT8NmdQITx9+PnZrPOYD2ZdSSr3Mtg7clqm1x9zeW2xR2jiJX2s4+RjUgGBEAABEDAZQScdACymcVXWW9iPYM1gRUCAiAAAiAAAiAQAwJOOAADOF93st7OKm/4EBAAARAAARAAgRgTiKUDIGl9h/WXrJkxzieSAwEQAAEQAAEQCCEQKwcgj9N8gfW0kLRxCgIgAAIgAAIg4BCBWMwCuJjztpYVlb9DhYxkQQAEQAAEQKA9AbsdgPmc4GusWe0TxjUIgAAIgAAIgIBzBOzsAriZs/U3Vozud658kTIIgAAIgAAIdEjALgfgEk7tCVZU/h1ix00QAIF4IJCQ97JSNlp3X6MUHoFBQIWAHV0Aw9mgf7Da5Vyo5BdhQQAEQAAEQAAEmIBuB0AqfXGJ+4AuCIAACIAACICAewnodgC+z1nFaH/3ljcsAwEQAAEQAAGLgE4HQFb4+29wBQEQAAEQAAEQcD8BnQ7AXZzdXu7PMiwEARAAARAAARDQ5QDIxj7fAk4QAAEQAAEQAAEzCOhyAGRXP7z9m1HmsBIEQAAEQAAEtE3Vky19tUjW0EmUN+sW6j9hLqX3G0G+5HQt8SISEOiIwIvz1ZaqKKtopOysnh1FjXsgAAJGE/Dban1Zpa3RRxS5jrn6/TilMyJKrZOHEn3JNHX+QzRqzrcoIUFXw0QnCeIjENBA4INPiunyeYM0xIQoQAAEXEWgtdFWc5bLDjkOi46adjbnQek1Sir/836ykEbPvR2Vv8NfCCTfPQIPPL6NWlu7FwZPgwAIGECgud42I+U344GnbIs+4oh1OAAzIk4tzIPTvvYw5Y4XPwICAmYRWLmmmB55aqdZRsNaEACBCAg0R/BMdI/88QWiVeujC6szlA4HYJyKQVaf//m3qkSBsCDgKIG7frOeFi3Pd9QGJA4CIKCTQAtRkj2b2C5aRfSjh3TaGn1cOhyAMdEnTyQD/tDnr0IQYZ0m0ORvoStvW0XvvH/EaVOQPgiAgA4C/lLu2NY/uPftD4mu5BVz/PY1LnQr9zocAFkDIGoZMHFe1GEREATcQqC+oZmuuHUl/fHvO9xiEuwAARCIigCP/k/MiCpkZ4H+53miK+4kqrd3bGFnJpzwmQ4HQGn+f1rOsBOMwg0QMJGAv7mVfvDLz+mSW1bQ4YI6E7MAm0EABPxl7ACkaONQyI0JX/kx0Q9/T9TMPQtuEqXR+20ZURoDfd0zSsHdxBK2GEhAdR2AcFnundmD7r/7FLr1+rxwj+A+CICA2wj4S3gj+5xjVpXJ5rbRy8tLiL59L1FxefRxdBFSqQ7X0QLQhX34GAS8R6C8som+9bM1dO13P6IDR2q9BwA5BgHTCLRU8cC/TC1WHygguvbugNpY+SvbCgdAGSEiAIHwBF5ecJBGz1poOQOFJQ3hH8QnIAACzhForuG0edBfQg8lG0p5db97/kR00pVE8vbvdoED4PYSgn3GE2hsaqHHn99No85bQPf8bgNV1fAgIwgIgIA7CDTzm38CL4qbmBy1PbW8ZtD9fycadVngWGeIrw8HIOoiR0AQ6B6B6lo/3f/oVho3dxH97rFtJN0EEBAAAQcJNMuAv9SoK39Zz/93/yAafXngzb+cfQmTRGkAQVtGlUbxYRCgSV+X+LPVrkGAkZDKSPPRDZcPozv+bSyNG6U0mSaS5PAMCIDAUQJcbfkLecBfLt/ppBoMMwhw9yGix18levQVoorqo5E6cdKJ8V2boxS4LXo4AF1zxhMuJeCkAxBEkpiYQJfNHUQ//MYYOu8M2VsLAgIgYBuBFm6fb+GBub4IlrBp5wAsX0P08HNEb37AUbhjSp9SHa5jN0DbygkRg4AXCLS0tNLr/zpk6Ul5veirlw6lm68aQSOHYitsL5Q/8hhDAv6iwEj/SCr/NrMOcUPBK0uJ/voG0Rdxts6XkvfQxsdVLQAVBzbQ7mVPUMGmpVRTtJf8DTK60znxJadTer8R1H/CXMqb/U3KGjLRVmO8nv/uwnVDC0BHNkurwJlTc+imq4Zb3QTSXQABARCIkkAL1wMtvARfhBW/rOz51tIj9NSLH5Gs3e+WpXs7yL1SHa4UuM0YVzgALU0NtO7ZO2jX0sd4e1Z3tM20L6yExCQaPec2mnLjg5To07vOtNfz3551pNdudQBC7e+V7qOrLxxC110ylGafmUs9e2DsbigfnINAWAKtPONGBvpZi/t0/n8js3XeW1VIL71zgF5ZeNCU2TpKdbhS4DbojjsAUvktf+BCKtz8ftjvgZs+6D/+fDr3Jwu1OQFez79K2ZrgAITmLy01ic5nJ+Cai4bS5fMGUVYvtXnLoXHjHATihwC/BMqGPok8uLaT6X21dc20dFUByXodby45TBVVxs3MUarDlQK3fVkcdwA++9vt/Ob/qFHf3THzvkvTbuYVIzSI1/OvgtA0ByA0r8k9E+mc0/rRJecPZIdgCA3qz9OZICDgZQKtvM1eM1f8SVzxJ3S8nn9JWaO1c+fb7x2mBcvyqYan5xosSnW4UuA2aI46ANLn/e5/THFts3+4L5Z0B1zw2/U8JmBCuEciuu/1/EcEqZOHTHYAQrMlYwZOnZRNc87KpTkz+9PM6TmUkpwU+gjOQSB+CQSb+q03/uMrfunPX7mmhJauLOC3/UL6bEMZj+BXqrbcxFGpDjd+ZJEM+HNrn39n35LWlmbas/xJazxAZ8919ZnX898VH698Lj9on6wvtfTev2yl1JQkmjYhm84+rS/NnZlrTS/s4eu8D9QrrJDPOCIgg/uaZUpfFmtgCq38L6zbXE5LVhTQis+KafnHRab058e8YIx3API3GrDgcphizd+wOMwnkd/2ev4jJ2XPkxPGZNKmHbwcmMukrl7eeootldUH+/TuSbNnBByBGVP70JTxvQkOgcsKDeZERkCa+WXXvkSuvpL6UFNLKn2+oZxWryulZasLaRlX+KXlPOLf5TJhFNGmXc4aabwDUFuy31mCCqnXFO9TCB0I6vX8KwNUjODzBV+iv760h/7zDxupqNS9C4DLD+I/Fx20VLIslf8p47Jo5ql9afrEbB5L0BfrDih+FxDcZgJtb/tHSpPps41+WrOxiFZ+ttFycsXhNUWyM4nuvpnojhuJkmc4a7XxDoC/3tl1GFWKz1+vvnC01/Ovwl9HWF9SAt16fZ41Te/nD22ix57bxXOG3d+/2ORv4R/QMkuDHIYNSqMzp+VY6w+cNrkPTTopi2QKIgQEnCJQVVVFG7YU0Ccbamn1+lr6aG0J7T9s5vbaPh6Sc9vVRL+4jagPOwFuEPx3u6EUYIPxBKSJ/ZFfTKXbbsyju+/bwKOLjxiXJ/lhFX3x7QOW7Qk8vChvaAZNPjmLJnFrwSnjelvnck8+g4CALgKt7DPvPlBN67dU0BdbimnD1jJav7WG79XyGC9dqTgTj/yvXHw27xL4faLxec7YEC5VOADhyOA+CERBYOLYLHrnr2fTWn67/vWft9Abiw8bO+JYfnh37a+29NV3efeTNpFWgYncOiBdCJNP7k2SZ1nCODcn+u1Ug3HjGP8ECksaaNvuKtq4vYIr/HL6YmsFbdxWEXcD9RJ5zO2Vs4l+dgvR1JPcWa5wANxZLrDKcALTuF/91b+cZQ0QlEF4z7+534iugUiwV9X4raZYaY4NFZl2mDcsnWRgZN6wDG49SG+7zqKBucdPzQoNh/P4I1BW0chv7/wGv1+02jrftL3SqvQNXGynWwUkFf9FM4l+ebt7K/5ghuAABEngCAI2EJDK8Kk/nE7/9b3x9OCT2+nZ1/fF3ZtOEJvMt97MMyJE20tOdk8aPTyDxo7sZR2HD06jwQNSaTAvXiRjD9Kx10F7ZK6+lsVzpLvoUEEdHcqvo32HamnnvmravqfKOspiO16TXmlE8y8iunM+0eihZuQeDoAZ5QQrDScwZkQG/eVX0+h395xitQb87zO7rOZPw7MVsflSIZSUldLHn/MqbR2ItB4M6p9ijTmQ1gJZ1VBaEILnA/sF7nUQFLc0E5AR9UcK6+lwYZ11lDf4w3x9hK/ljV7u5xfVG983rwvbuBFEX7+U6NariGSEv0kCB8Ck0oKtxhOQ/nOZNSAqo/Aff343Pf3aPjJpGpMdhSCtB4Hm4vC7d8rSxzLYMjuLNVOOPQLnfD2InYaBuanH3cvO7OH55ZHleyXN8WWVTYEjnwcr97KKY/es88pG620+3pvodXx/k3kvt8vODVT6c8/QEaMzccABcIY7UgUBa/79Y7+ZTr/50UTegewgPffGflq1cObROgAAJ7VJREFUthhvVmG+Gw2NLVblJRVYpCIrImZm9OAuhiRr46S0FJ+1SqI4D/KZaG92JtLazmVzJemOkOteGT5K4iWWM9ttuCTPJIZMg5A4UpK547dNknhqqKQZKpXVTdQcMj20vqHlOKevhUdctq94K3ljmmZe1a6q2k+1XJFLs7s8I5W6XJdzhS3ngUo+eD/wTE1tM0ma8hlEDwEp8pmTiW64kOjaeUQ5vPig6eJ5B6D1p9cqlWHCvS8phXc88IKlaiZcNEctPEJT3+xk+vb8UZYeOFJLry46ZLUKSAsBRI1AsIJUiwWhvUxApu5dM5foaxcTjRoSXyQ87wDEV3EiN6YTGDowjX7wjTGWbuCpUdIq8PriQ7R1l/qiUaazgf0gECsCJ4/OpCt4u+3rZ22lSaNjlWrs04EDEHvmSBEEIiIgK/Hd+5NJlu7hKVWLeXOTt5Yepn99WECNTbzfOQQEQEALAem2mTElhy6dM5AumzuIxAGwpGyrlvjdGgkcALeWDOwCgRACI3lEfHDwoAzqWvRBPr255DC9+0GBNbgr5FGcggAIREBABpRecM4Aq8L/8nkDeCzI8eM2IojC+EfgABhfhMiA1wjIKPjrLx1maXDr0xWfBnb+E4dABn9BQAAEjicggzVnTg9sjy2bYJ0xpY/nd8SEA3D8dwRXIGAUgUQepS67+YnK2AEZKS8r9C1dVcBaSJ+uL42bFQiNKhgY6zgB2ajrdN7Uas7M/jTnrFyaMTWHZCop5BgBOADHWOAMBIwnID9ws2b0s/RXdxLV1jXT2k2869+GMmvb1GWri1y9bbHxBYAMOEZApl5KhT/z1BzLIT739H7W1E/HDDIgYTgABhQSTASBaAmkpSbR2dzcKSotBCKyEcvqdSW85kCJ1VqwZWclWgmiBYxwjhCQt/vxvMx2cPtqOcoy05DuEYAD0D1eeBoEjCcgO/eJ3vyVEVZemvwtvIZ7tdVKIGsPSGuBtBpgERnjizouMtDDl0hjRmYc7eqaPimbpk3IJnFuIWoE4ACo8UNoEDCegPzAyqZFojddNdzKjzgFsnubOAKyR/sm3rp1M7cUdGcVPuPBIAMxJyB7P4znKXgTeIvpKeN701TWCWMzPT9Yz66CgANgF1nECwIGExCnQH6ARUNFlqKVXd/EORCHIOgYyDoFvJotBAQiIiAzWQIVfebRo6x70b8vto2OCKCmh+AAaAKJaEDACwRkHfzgrIPQ/FbV+Gnn3mrLOdjFu8ftYidBHIVd+2roYH4tnINQWB44l3XzhwxIo9G8C+aoYek0ireClu2gRw3jI9+TTbEgzhNAKThfBrAABIwnID/oUydwky1re5Gd/nbxNrLiFOw9WEMHjtSx1tJBPu47VENHeGvZ0I1y2ofHtfsIyMp5skXz8MHpNHRQqlXZDx2YSiOGpFsVfR5X+rLFM8TdBOAAuLt8YB0IGE9AKoLgGIOOMuPnXfJkr/n9h2stPZRfR4cL6qmwRPagr6eCYtEGKi5r6Cg47mkm0K9PMuXmJNMAruBFc3NSaPCAVBrcP9Wq7IcNSrO2XpaR+BCzCcABMLv8YD0IGE9AKhLZBEl05vTw2ZGBiYXsCEiLQT5rUWkDlbBTUFreSKW8PLIcS8oaqYy3ybXu8bV0TXhZpGVGlry1lPvd5ZjDu09m87K3wXOp7KXvXd7oc/smY8Cdh74wcAA8VNjIKgiYTEAGJlpvovw2GqmI01Be2URV1X4+NlINL4xUzU5BdW3bdS1f83nwWgYyyl4LIuI8+P2t1nRI6caQuOQ5EYmjiT9rL35+JpzTIZWxj/PQXnr4EiijrU88I81nVcDSaiJL1/r4s2B/uQyck7713pk9rXvpqT5KT0s6ds1h03lqnPV5hs9a216YQUAgHAHPOwAJ974Ujo037l80xxv5RC49SUAqQGnSFiVK9yQDZBoEwhGAexiODO6DAAiAAAiAQBwTgAMQx4WLrIEACIAACIBAOAJwAMKRwX0QAAEQAAEQiGMCcADiuHCRNRAAARAAARAIRwAOQDgyuA8CIAACIAACcUwADkAcFy6yBgIgAAIgAALhCMABCEcG90EABEAABEAgjgkY7wD4UnoZWzw9UjOVbfd6/pUBIgIQAAEQ8CgB4x2AtJyhxhZdWs4wZdu9nn9lgIgABEAABDxKwHgHYMDEecYW3YBJX1K23ev5VwaICEAABEDAowSMdwDyZn+TEhLN23ZSbM6bdYvy187r+VcGiAhAAARAwKMEjHcAsoZMpNFzbjOu+MbM+w5lDh6vbLfX868MEBGAAAiAgEcJGO8ASLlNufFB6j/BnE1t+k+cS5Nv+L22r5zX868NJCICARAAAQ8RiAsHINHXk8798QIaM++7ru4OkGb/sRd837I1MamHtq+Z1/OvDSQiAgEQAAEPEeDdpZXlxE2xuxHldc8oBT8hpYqDm2jP8icpf8NiqineS/766hOeieUNX0oGpfcdQTLgT/r8dTT7d2a/1/PfGZuOPntxvtq/QOvuazqKFvdAAATigUDZy7bmImG6cvRKP2BKgdtMV6rBdTsAyjgRgacIwAHwVHEjsyDQPQJx7gDERRdA90oUT4MACIAACIAACMABwHcABEAABEAABDxIAA6ABwsdWQYBEAABEAABOAD4DoAACIAACICABwnAAfBgoSPLIAACIAACIAAHAN8BEAABEAABEPAgATgAHix0ZBkEQAAEQAAEdDgAjSoY/fVVKsERFgRAAARAAARAIAoCOhyAyijSPRqktuTA0XOcgAAIgAAIgAAIxIaADgegTMXU/I2LVYIjLAiAAAiAAAiAQBQEdDgAO6NI92iQ3e8/Qa0tzUevcQICIAACIAACIGA/AR0OwFYVMysObqSdSx9ViQJhQQAEQAAEQAAEuklAhwPwUTfTPOHxz5+9kwo2LT3hPm6AAAiAAAiAAAjYQ0CHA7CMTVPaEbDF30gfPHAR7Vj8CLoD7ClnxAoCIAACIAACxxHQ4QAUcYzKrQDiBKz9x/fo3f+YTNsWPkTSNeCvrz7OWFyAAAiAAAiAAAjoIeDTEw09zfGcpSOuioObSLoEICBgAoHyyibqndnDBFNhow0EEvJeVoq1dfc1SuER2E4CfjsjpzKlCfR6TNPRAiCWvMCKFX30lAliMYjA8o+lAQwCAiAQdwRalda46xLH8rVdPmL7A7ocgHK29H9ttxYJgIDLCDzw+DZqVRoB47IMwRwQAIEAgeZ620jIb8YDT9kWfcQR63IAJMEHWV3QqBFx3vEgCCgTWLmmmB55SmkpDGUbEAEIgIAdBOxbn+aP3Ga+ar0dNncvTp0OQCEn/V/dSx5Pg4D5BO76zXpatDzf/IwgByAAAm0EWoiSsmyhsWgV0Y8esiXqbkeq0wGQxP/MurrbViAACBhMoMnfQlfetoreef+IwbmA6SAAAkcJ+EuJEnoevdR18vaHRFfeReS3r3GhW6bqdgAkW9eylnTLCjwMAoYTqG9opstvXUn3P6q0MKbhFGA+CMQDAR79n5ihPSOPvxqo/OvtHVvYLbt1OwCSuGzvN5+1SS4gIOAVAs3NrXTP7zbQVbevooJi+wYQeYUn8gkCjhDw8/52iSnaki7gxoSrfkT0rd+4580/mDk7HACJexHrLawYHy00IJ4i8Nq7h2jiBf+il94RXxgCAiBgDAE/N177+mkz9yXe7HYiL/Xw2vvaotQakV0OgBj5NOvNrGgJEBoQTxEoLmug6763mq797kd04Eitp/KOzIKAkQRaeCmbpEwtph8o4L7wu4muu4eoWCbJu1TsdAAky+IEXM7KbSoQEPAegZcXHKSx5y+in9z3BZWWu6jzz3tFgRyDQHgCzTX8GQ/6S1Bb1bOUJ8L/+GGisVcQvbwkfHJu+cRuB0DyuZB1GuvHcgEBAa8RkAGCsmDQqFkL6D4eJFhb55IhwF4rCOQXBDoi0Mxv/gm8Kn5ickefRnSvlof83Ps3olGXEf2eX3vdNNCvswwkdPah5s+SOL5vs/6KNUtz3IgOBIwhMKh/Kv3g62Po1uvzsI+AMaXWsaHYC6BjLsbcbZYBf70CDkBHRpd1vteDrOf/f68RPfwc0ZHijiKw/Z5SHa4UOMqsyQiLO1i/w6qnwyVKQxAMBJwkkJHmo69fPYJ+8I0xNHq4/mlHTubNK2nDATC1pHl8up/XrvPlcgY6qQbDOAA7DxD9z/NEf3+LqNrZIT6dGN912SgF7jr6Tp+QVgBZM+AmVtlJMBbdEZwMBATcRSAxMYEumzuIfsiOwHlniH8MMYUAHABTSirEzpYGohautX3ZITfDnLZzAJavCbztv/kBR8GLBbpAlOpwpcAaM9+H45rFeibrONbRrH1ZuW2Gou+Y4cAQEDCJwEl5veimq4bT164cTkMHpplkuidthQNgWLH7efdOGemfEGG1wg6AjOh/+h2ip94m2rbPdflVqsOVArsOBQwCge4T4LZA94m0Cpw5NcdyBm64fBhJdwEEBEAgSgItNfzKzrNwInnr5yRk4O5bS4/QUy9+RLJ2v1uW7u0g90p1uFLgDozBLRAwjYArHYBQiL3SfXT1hUPoukuG0uwzc6lnD/SWhfLBOQiEJdDKy/rKQD9fDj/S+f9NY1MLvbeq0FrA65WFB6mqhsO6X5TqcKXA7mcDC0GgSwKudwBCc5CWmkTnsxNwzUVD6fJ5gyirl9q85dC4cQ4C8UOAO+hlQx8Z4d/J9D6Zkrt0VQHJeh1vLjlMFVXGrVunVIcrBY6fLwty4mECRjkAoeWU3DORzjmtH11y/kB2CIaQTC+EgICnCbTyGhvNXPEnydS+jtfzLylrtHbufPu9w7RgWT7V1Brxph+uWJXqcKXA4SzCfRAwiICxDkAoYxkzcOqkbJpzVi7NmdmfZk7PoZRkWXoDAgIeIBBs6rfe+I+v+KU/f+WaElq6soDf9gvpsw1lPII/Lv7tpWCV6nClwB74WiGL8U8gbn4JQosqNSWJpk3IprNP60tzZ+Za0wt7+DrvAw0Nj3MQMIKADO5rlil9PKs8gZfyZZHKfd3mclqyooBWfFZMyz8uMqU/PxrkSnW4UuBorEUYEHAZASUHYMKYTNq0g5cDc7n06d2TZs8IOAIzpvahKeN7ExwClxcazOuYgDTzy659iTwzJqkPNflb6HOu8FevK6VlqwtpGVf4Juy7MWEU0aZdHWexG3eV6nClwN0wEo+CgFsJKDkATTuupr++tIf+8w8bqaiUFxgxRKTyP2VcFs08tS9Nn5jNYwn60sih6YZYDzM9SaDtbf9IaTJ9trGa1mwso5WflXDzfjHV1Zuzv0Y2L0Nw9828HO6NvMjNDOWSVKrDlQIrm44IQMB5AkoOQOvua6wcyBvHzx/aRI89t4vnDCtF6RiRYYPS6MxpOdb6A6dN7kOTTsoimYIIAQGnCFRVVdGGLQX0yYZaWr2+lj5aW0L7Dzu79m60LHw8JOe2q4l+cRtRH3YCRBKmB44Kf5XqcKXACkYjKAi4hYBSbR10AIKZ2bi9gu6+bwOPLj4SvGXsMYF/HfKGZtDkk7NoErcWnDKut3Uu9+QzCAjoItDK/4W7D1TT+i0V9MWWYtqwtYzWb63he7Ukn5ks8r9y8dlE93+faHze8TmBA3A8D1yBQKwJKP28tHcAgsav5ebJX/95C72x+HA8jTi2sietAhO5dUC6ECaf3Jsmjs0iWcI4NyfC5VWDkHD0JIHCkgbatruKxFlev6WcvthaQRu3VcTdQL1EHnN75Wyin91CNPWkjosaDkDHXHAXBGJFwBYHIGi8DBC8/9Gt9Pyb+43tGgjmpaujTDvMG5ZOMjAyb1gGtx6kt11n0cDc46dmdRUXPjebQFlFI7+98xv8ftFq63zT9kqr0jdwsZ1uFYZU/BfNJPrl7eEr/mCEcACCJHAEAWcI2OoABLO0Y281Pfjkdnr29X1x96YTzGNnx5zsntaWx2NH9rKOwwen0eABqTSYFy+SsQfp2OugM3yu+0wWz5G++EMFdXQov472HaqlnfuqafueKusoi+14TXrx3l3zLyK6cz7vZjc0stzDAYiME54CAbsIxMQBCBov64tLa8D/PrPLav4M3vf6UVoPBvVPscYcSGuBrGooLQjB84H9Ave8zikW+ZcR9UcK6+lwYZ11lDf4w3x9hK/ljV7u5xfVG983r4vluBFEX7+U6NariGSEf3cEDkB3aOFZENBPIKYOQKj5Mo3p8ed309Ov7TNqGlNoHmJ5Lksfy3oG2VmsmXLsETjn60HsNAzMTT3uXnZmD88vjyyVuTTHl1U2BY58HqzcyyqO3bPOKxutt/l4b6LX8Z1N5jWHLjs3UOnPPSP6GOEARM8OIUFABwHHHICg8cVlDbwD2UF67o39tGptMd6sgmA0HGVFxMyMHtzFkGRtnJSW4iO5J86DHEV7szOR1nYumytJd4Rc98rwURIvsZzZbsMleSYxZBqExJGSfGyVxaQkDsNphkpldRM1h0wPrW9oOc7pa+Gh7u0r3kremKaZV7WrqvZTLVfk0uwuz0ilLtflXGHLeaCSD94PPFNT20ySpnwG0UNAinzmZKIbLiS6dh5RDi8+qCpwAFQJIjwIqBFw3AEINf/AkVp6ddEhq1VAWgggIAACzhKQqXvXzCX62sVEo4botQUOgF6eiA0EukvAVQ5AqPEbeGqUtAq8vvgQbd1VFfoRzkEABGwkcPLoTLqCt9u+ftZWmjTavoTgANjHFjGDQCQEXOsAhBq/h6dULebNTd5aepj+9WEBNTbxfucQEAABLQSk22bGlBy6dM5AumzuIBIHwJKyl7XEHy4SOADhyOA+CMSGgBEOQCgKGdS16IN8enPJYXr3gwJrcFfo5zgHARDomoAMKL3gnAFWhf/l8wbwWJDjx21YMcAB6BokngABgwkY5wCEsg5ufbri02JrUxRxCGTwFwQEQOB4AjJYc+b0wPbYsgnWGVP6dL0jJhyA4yHiCgTijIDRDkD7smhobLE2TFm6qoCWriqkT9eXxv0KhO0Z4BoEhICPm/VP502t5szsT3POyqUZU3NIppJ2S+AAdAsXHgYB0wjElQPQHn5tXTOt3VRGazbw1qm8beqy1UVGbVvcPj+4BoFwBGTqpVT4M0/Nsba4Pvf0ftbUz3DPR3QfDkBEmPAQCJhKIK4dgI4KRTZiWb2uhNccKLFaC7bsrEQrQUegcM+1BOTtfjzvORHcvlqOssy0doEDoB0pIgQBNxHwnAPQHn6Tv4XXcK+2Wglk7QFpLZBWAywi054Urp0g0MOXSGNGZlhv9dMnZtP0Sdk0bUI2paUm2W8OHAD7GSMFEHCQgOcdgI7Yi1Mgu7eJIyB7tG/irVs3c0uBLCMLAQG7CMjeD+N5Ct4E3mJ6yvjeNJV1wtjMrgfr2WVQnDsAPru4IV4QAAFzCchbl/wAi4aKLEUru76JcyAOQdAxkHUKeDVbCAhERED2cwhU9JlHj5NOyqL+fbFtdEQANT0EB0ATSEQDAl4gIOvgW82w3BQbKrLL4U7e8licg128e9wuPlrn+2roYH4tnINQWB44l3XzhwxIo9EjMmjUsHQaNTzD2gZ61DA+8r1e6ah63PA1QCm4oRRgAwgYTkB+0KdO4CZb1vZS39DMTkGN5RTsPVhDB47UsdbSQT7uO1RDR3hr2dCNctqHx7X7CMjKebJF8/DB6TR0UKpV2Q8dmEojhqRbFX0eV/qyxTPE3QTgALi7fGAdCBhPQCqCCTxiW7Qj8fMuebLX/P7DtZYeyq+jwwX1VFgie9DXU0GxaAPJrokQ+wn065NMuTnJNIAreNHcnBQaPCCVBvdPtSr7YYPSrK2XZSQ+xGwCcADMLj9YDwLGE5CKZOjANEtnTg+fHRmYWMiOgLQY5LMWlTZQCTsFpeWNVMrLI8uxpKyRynibXOseX0vXhJdFWmZkyVtLud9djjnZyZTNy94Gz6Wyl753eaPP7Zvs3IA7LxeUQ3mHA+AQeCQLAiDQPQIyMNF6E+W30UhFnIbyyiaqqvbzsZFqeGGkanYKqmvbrmv5ms+D1zKQUfZaEBHnwe9vtaZDSjeGxCXPiUgcTfxZe/HzM+GcDqmMfZyH9tLDl0AZbX3iGWk+qwKWVhNZutbHnwX7y2XgnPSt987sad1LT/VRelrSsWsOm85T46zPM3zW2vbCDAIC4QjAAQhHBvdBAASMJyAVoDRpixKlG58fZAAEdBKAe6iTJuICARAAARAAAUMIwAEwpKBgJgiAAAiAAAjoJAAHQCdNxAUCIAACIAAChhCAA2BIQcFMEAABEAABENBJAA6ATpqICwRAAARAAAQMIQAHwJCCgpkgAAIgAAIgoJMAHACdNBEXCIAACIAACBhCAA6AIQUFM0EABEAABEBAJwE4ADppIi4QAAEQAAEQMIQAHABDCgpmggAIgAAIgIBOAnAAdNJEXCAAAiAAAiBgCAE4AIYUFMwEARAAARAAAZ0E4ADopIm4QAAEQAAEQMAQAnAADCkomAkCIAACIAACOgnAAdBJE3GBAAiAAAiAgCEE4AAYUlAwEwRAAARAAAR0EoADoJMm4gIBEAABEAABQwjAATCkoGAmCIAACIAACOgkAAdAJ03EBQIgAAIgAAKGEIADYEhBwUwQAAEQAAEQ0EkADoBOmogLBEAABEAABAwhAAfAkIKCmSAAAiAAAiCgkwAcAJ00ERcIgAAIgAAIGELAZ4idMBMEQAAEXEcgIe9lJZtad1+jFB6BQUCFAFoAVOghLAiAAAiAAAgYSgAOgKEFB7NBAARAAARAQIUAHAAVeggLAiAAAiAAAoYSgANgaMHBbBAAARAAARBQIQAHQIUewoIACIAACICAoQTgABhacDAbBEAABEAABFQIwAFQoYewIAACIAACIGAoATgAhhYczNZGoE4lpvLKJpXgCAsCIOBaAn5bLSurVI6+RjUGOACqBBHedALFKhlY/nGRSnCEBQEQcCuBlgZbLVu+Vjn6EtUY4ACoEkR40wko/RM98Pg2am01HQHsBwEQOIGAv/yEW7puyG/GA08px6b08iKpwwFQLgNEYDiBTSr2r1xTTI88tVMlCoQFARBwIwF/oW1W/fEFolXrlaNX+u2S1OEAKJcBIjCcwEpV++/6zXpatDxfNRqEBwEQcAuB1maixgO2WLNoFdGPHtIStfJvFxwALeWASAwmsELV9iZ/C1152yp65/0jqlEhPAiAgBsINO0natU/BuDtD4muvIvIz/6FBlH+7YIDoKEUEIXRBDaw9cqNcfUNzXT5rSvp/ke3Gg0DxoMACPDo/zrl1vUTMD7+aqDyr2884aNobnzBgZSNhAMQDXqEiTcCf9ORoebmVrrndxvokltW0OECpdmFOsxBHCAAAtEQqNtI1KLv/7ewlOgrPyb61m+0vflLrh6PJmvtwyS0v4FrEPAggT6c5z2smbry3jc7mf78y6l07cVDdUWJeEAABOwm0HiIqIY76TXJS4uJvnMfUbHeCQUVbN4IVuVYkzTlE9GAgMkEgu7+XF2ZqK1vplcWHqTNOyppxtQcyurVQ1fUiAcEQMAOAs1cn1qVf4ty7AcKiP79V0S/4Pf02nrl6NpH8HO+8V77m9FcowUgGmoIE48EUjhTW1hH6M5czx6J9PWrR9Cv7pxIuTnJuqNHfCAAAqoEWqqJqt7npn+12rqUV/f73T+I/vg8DyPQP4ZQciktlSezaokdLQCCFAIC3D3HELaz3sCq1TFubmmlNRvL6IkXd1ucp03Iph7sFEBAAARcQEAW/KlerlT5y1v+758muu4eoqWfaO3rDwUkTRPy+7Qt9KbKORwAFXoIG28EZEUfGQdwph0Zq29ooaUrC+nv/9xLMmBwwtgsSknGv6AdrBEnCEREoInX76j5kKf8NUb0ePuHZD3/P73AtfLPiN5YRqRphH/7ZILXD/DJo8ELHUetbzo6DEIcIOAwgZ6c/gesZ9htR0aaz+oa+ME3xtDo4Rl2J4f4QQAEjhJo5dp6KyvPpItiLe+dB4j+h5v5//4WNx7UHo3UzpOPOPLzWLXuPgYHwM4iQ9ymEujHhssiG2NjkYHExAS6bO4g+iE7AuedIUlDQAAEbCMg/fy1n3JVym//3ZTla4gefo7oTX5FaJEG+dgIeyp0Dqvy2v/tzYUD0J4IrkEgQEDm78lSmzGdx3dSXi/66qVD6earRtDIoekoCxAAAZ0EGvfx6LzPufaOvMn/EG8J8MpSor++QfTFDp3GRBQXz0ukmaxsuH6BA6CfKWKMHwLjOCvvsg6LdZakVeD8M3Pp5q8Mp6suGEJpqRgrEOsyQHpxREBG+deui/itv4YnBr/6HtFT7/B8O24siOHbfij0vXxxAev20Js6z+EA6KSJuOKRwBDO1CLWCU5lrle6j66+cAhdd8lQms1OgUwrhIAACERAoJUn99RvZpVX987b7Bu5d10qe1m855UlPCswNn374TIhS5R/mfVwuAd03IcDoIMi4oh3ArJS4D9ZZzmdUVlQ6MJZA+jKLw3m40AS5wACAiDQngBX9g17A4P8OpnbL5X8Qu7oe42XAJBjBTcUuEC47YGuZi2z2xY4AHYTRvzxQkDa4P+rTV3xCp7cM5HOOa0fXXL+QLrmoiE0qH9qvLBGPkAgOgLWNr57uZ+f1/Rq5Xb8DqSEF9J9h2f+yc58C7jSl+Z+lwhPTaA/sf6Ildsj7Bc4APYzRgrxReAKzs7fWHu7KVsyZuDUSdk056xcmjOzP82cnoM1BtxUQLDFXgKtXF827GLdwS39PMo/RGRu/koe9ycL9Ih+xr6BQ336IVadcCpv+19nffOET2y8AQfARriIOm4JDOCc/YVVnAFXSmpKEsmKg2ef1pfmzsy1phf28Lmi4cKVvGCUoQSaeSUeGdnfsPvoYj5Sua/jtfKWfMxzebnil6l7DvfndwV3IT9wK+vBrh7U/TkcAN1EEZ+XCNzMmX2YtbfbM92nd0+aPSPgCMyY2oemjO9NcAjcXmqwr0MCVjP/Aa74udL3l1ATj/P7nCv81TxsbhlX9ss+I5I1+Q0Qeev/AevTTtkKB8Ap8kg3XgjkcEZ+zvod1iRTMiWV/ynjsmjmqX1p+sRsHkvQF+sOmFJ4XrVTpvI17KEjh3bTZ5saaQ035a9cH2jet2njHbtIcxsFPcv6Y1beN9A5gQPgHHukHF8ETuXs/A/rWaZma9igNDpzWg6dydsXnza5D006KQuzDEwtzDixu6qqkjZs3E2ffH6YVq+voY++INrf/QX83ERDVhiVt/61bjAKDoAbSgE2xAsB+X/6Cut/szq2bgCnrUUSODd5QzNo8slZNIlbC04Z19s6l3vyGQQEdBGQ5fh3H6im9Vsq6IstRbRhSyGt31pFuw+2RLNUvy6zdMazkSP7f6yvsXJu3SH4N3ZHOcCK+CIgo+2uZ5V/+DHxlTWyWgUmcuuAdCFMPrk3TeRdDWUJ49yc5HjLKvJjA4HCkgbatruKNm6v4Aq/nL7YWkEbt1VQVQ135sef8OgE+gXri6zS9O8qgQPgquKAMXFGQFbpuZZV5vVOjbO8nZAdWaRozIgMGs06ZkQvGjsycJR7MggR4h0CpeWNtGNvNWsVbd8TOO60rqupoiomU9ydhi1N/A+wvsza7LQx4dKHAxCODO6DgF4Cczk6cQS+xOq5/7uc7J7WlsdjR/ayjsMHp9HgAak0mBcvkrEH6bw1MsQcAjW1ftp/uJYOFdTRofw62neolnbuq+bKvso6lpRFvtmOObnu0lJp2n+XVSr+97p82gUPeO6HyAXMYYK3CYzl7P8b6zdZZQYBhAmkJCfxSoYp1piDgbkp1qqGebwbYvB8YL/APcCyn0BdfTMdKaynw4V11nH3/mo+r+fzOtq9v8a6n19UHy998zqA8tqCVhP/I3zkyYjmCBwAc8oKlsYXgTTOzldZv8V6enxlzZ7ciJMgLQk53J3QNzuZ+vGYAznKveBRPsvNSTl6z+u7KNbWNVNxWQPJG3lhST2VcNN8cSlf81HuyWdF3CdvPdN2r77BtS3W9nyxoo91NQd9jFX69+uij8a5kHAAnGOPlEEgSGA8n9zEeiPrkOBNHNUJyIqImRk9uIshiWSMQlqKj+RedlYP6yjnvTN78v0k61qeke4Iue6V4aMkXmI5k++FijyTGDINQuJIST62ymJSEofhNEOlsrqJmpuPDf6ub2ghedMOSgsPg2/fN17JfeXNLa1UVe2nWn5Wmt3lGQkn1+WVjda5XJdVBO8HnqmpbSZJMzSNYFo4KhHgFYjoGVZZvIdXIjBb4ACYXX6wPr4ISC1yPut81stZXb/CINsIAYF4J1DGGXyDVSr9ZayuG83PNkUlcACiwoZAIGA7AVlV8EzWa1ilqyCXFQICIBAbAlLpv80qo/hlYF9cjmqEA8AlCwEBlxOQ9uTZrJeyXsw6khUCAiCgl8Aejk4q/bdYl7HG/XxFOABcyhAQMIzABLb3ElZxBmawHt/hzDcgIAACXRKQCv4j1nfadFOXIeLsATgAcVagyI7nCMhsAtl/4GzWmaznscIhYAgQEGhHQEZd8gbBtJJ1Beu/WGUKn2cFDoBnix4Zj1MCGZwvaRWY26ayAuGxIep8AQEBDxHYzXldEqLStw9pIwAHAF8FEIhvArLY0Lmss1llUOEprD1ZISAQbwRkoN56VmnWf5/1A9ZSVkgYAnAAwoDBbRCIUwI+ztdJrNPbVLoNprDKrAMICJhCQJrzt7GuaadGLsjjFHQ4AE6RR7og4B4C0m0gTkDQKZDjyaz4fWAIEFcQOMJWhFb20oeP5nzFosE/uCJABAeBOCXQh/Ml3QXiCEwMOfbjcwgI2EWgkCPeyCqr7AWPG/gcTfkMQbfAAdBNFPGBQHwTyObs5bHKVERZwjh4lHsQEIiUgLy9b2aVqXfBo5zLmz4kRgTgAMQINJIBgTgnkMP5k9YCcQRGtjsO4mv81jAED4lsfHCYVUbhi8oiO8HzrXxewgpxmAD+KR0uACQPAh4gkMx5FKegvWMg1yNYsecBQzBQytnmvazByj30KOcNrBAXE0hwsW0wDQRAwBsEUjibMuZgIKu0FoQ79ufPElkh9hKo5+jl7V2a48MdD/Jnnl5Eh/NvvMABML4IkQEQ8AwBaUkYwDqYtS+rOA0yJiH02NG5V3/nWpmN9LXLADrRzs6L+fND/7+dO0htGAYCKHqAkt7/iFmGtnSVReanHgjdZe0nGGYsgcHPJJIx1sR1wpP7IJyhnfWHcYZ76xoJEPgT2EVBi4VeN7SQaAvlz4k2RSp3XP+Of0zd55GN7yuK/i+3nvLZ2lfhctSb9vx7XP6d+D+xfk/fvcGXdpu6ibtW3eY2P0dU19cTet+7f03UV97zN74TfVkjQIAAAQIECBAgQIAAAQIECBAgQIAAAQIECBAgQIAAAQIECBAgQIAAAQIECBAgQIAAAQIECBAgQIAAAQIECBAgQIAAAQIECBAgQIAAAQIECBAgQIAAAQIECBAgQIAAAQIECBAgQIAAAQIECBAgQIAAAQIECBAgQIAAAQIECBAgQIAAAQIECBAgQIAAAQIECBB4Q+ABxrkreZq3u18AAAAASUVORK5CYII=;" vertex="1" parent="1">
                    <mxGeometry x="520" y="279.32" width="190" height="190" as="geometry"/>
                </mxCell>
                <mxCell id="5" style="edgeStyle=none;shape=flexArrow;html=1;endWidth=44.57142857142857;endSize=9.182857142857143;width=28.571428571428573;fillColor=default;" edge="1" parent="1">
                    <mxGeometry relative="1" as="geometry">
                        <mxPoint x="500" y="400" as="sourcePoint"/>
                        <mxPoint x="300" y="400" as="targetPoint"/>
                    </mxGeometry>
                </mxCell>
                <mxCell id="10" value="" style="shape=image;verticalLabelPosition=bottom;labelBackgroundColor=default;verticalAlign=top;aspect=fixed;imageAspect=0;image=data:image/png,iVBORw0KGgoAAAANSUhEUgAAAgAAAAIACAYAAAD0eNT6AAAAAXNSR0IArs4c6QAAAERlWElmTU0AKgAAAAgAAYdpAAQAAAABAAAAGgAAAAAAA6ABAAMAAAABAAEAAKACAAQAAAABAAACAKADAAQAAAABAAACAAAAAAAL+LWFAABAAElEQVR4AexdBXxUx/OfuCckIYK7uxV3KbQUqNBCW+ruv3r/9ULbX90FKrRIhVIoxd2LF4egCSFA3F3/MxfCL4RLcre77967uxk+w929tzM7+93L7bzd2VkXYDIaAp3QoPHIQ5DrIzdADkRmYgQYAUbA3hAoRIMTkOOQDyMvQl6DnI/MpDMCLjrXz9X/D4Hr8O3byOQAMDECjAAj4KgIZGPDPkX+ADnTURtpD+1iB0D/XmqIJsxBHqy/KWwBI8AIMAI2QyAJa3oMeZ7NauSKLkPA7bJP/MHWCPTBCmk6rKOtK+b6GAFGgBHQGQE/rP8mZB/kdchlyEw2RIAdABuCXaWq3vh5PXJwlev8kRFgBBgBZ0GAZqEHINdFXuYsjTZKO9kB0KcnKLiPnvxD9Kmea2UEGAFGwFAIXIXWJCLvNpRVDm4MxwDo08EbsFpe89cHe66VEWAEjIlAEZrVFfmIMc1zPKtcHa9Jhm/ROLSQB3/DdxMbyAgwAjZGwAPre9fGdTp1dTwDYPvuP4BV8lY/2+PONTICjIB9INAXzdxuH6bat5U8A2Db/uuM1fHgb1vMuTZGgBGwLwQm25e59mstOwC27bsJtq2Oa2MEGAFGwO4QoN9Jnp22QbexA2ADkCtVMajSe37LCDACjAAjcCUCjfFSsysv8xXVCLADoBrRmvVR1j8mRoARYAQYgZoRoDNQmDRGgB0AjQGuop72/zMxAowAI8AI1IwA/1bWjI+Su+wAKIHRYiUBFpfkgowAI8AIOC8CQc7bdNu13N12VXFNMgjsjTopI86yjAAj4EQInDp7AeIS6Kwd/Wjej9/CP+tW6WcA11wrAjwDUCtEXIARYAQYAftCICcvz74MZmt1QYAdAF1g50oZAUaAEdAGgbLSUkjPztVGOWt1KATYAXCo7uTGMAKMgLMjkJ6dA+QEMDECtSHADkBtCPF9RoARYATsCIHE1HQ7spZN1RMBdgD0RJ/rZgQYAUZAIQL05J+cnqlQI6tyZATYAXDk3uW2MQKMgFMhkJCaAcXFJU7VZm6sOALsAIhjx5KMACPACBgHgbIyiL2QaBx72BLDI8AHLmjbRZGo/nrkXsjhyNciC1Hvfv2F5FiIEWAE1CHg6uICIaGh0LhJUxgyfAS0bttOnXILNBUWFMDmTRtg944dkBB/AXJz/xftX1hYBDn5+RZosU2RhHNxkJGWKlrZURTcixyNvASZjwdGEFQTOwCqES3X54EvbyE/hexdfon/ZwQYAUdDYNCQYfB/b7wFEZHk62tLq1csh4/++zYO/PHaVmRM7RvRrIeQo4xpnn1axQ6A+n6jAX8p8jD1qlkjI8AIGA2BumHhMH3mLGjesqVmpv0w/Rv46tOPoQyn+Z2YMrDtNIu61YkxUNp0dgCUwmlSNhP/v0u9WtbICDACRkWgYePG8NvCxeDn56fcxDUrV8DzTz3u7IN/Ba6U37gL8oWKC/wqjoCbuChLmkGgN177ApkdKzPg8CVGwFERyMzIAHcPD+jVu4/SJtKa/xMP3Q/ZWVlK9dqxMvKwApEX23EbDGM67wJQ2xUPoDoe/NViytoYAbtAYMG835U/pW/ZtBHiL/DDbpUvwO34Wf1US5VKnOEjOwBqe3mIWnWsjRFgBOwFgeSkRIg5fVqpubt37lCqz0GU+WA7aLaVSRIBdgAkAawiXr/KZ/7ICDACToRAYoLaCP2kxAQnQs+qpjawqjQXNosAOwBmYRG++L9NucIqWJARYATsFQEfX1+lpnv70MMukxkEcsxc40tWIsAOgJWA1VL8eC33+TYjwAg4KAKurq7QqHETpa1r0rSZUn0OpOyYA7VFt6awA6AW+r/UqmNtjAAjYC8IdO3eA4JDQpSaS9kGma5A4AReOXzFVb5gNQLsAFgNWY0CX+NdTsZdI0R8kxFwTATuf+RRpQ3LzM6FfPCETj043q0KsNOqfOaPggi4C8qxmHkEaLPuXci0R5VzLCAITIyAMyBw8623QZ9+A6SbWlRSDEkpGRCfkgZZOeUhRRPvfgDORp+E9NQUaf0OoGAhtmGOA7TDEE3gQUp9N5xElbQ+dS0ynQnAxAgwAg6MAA3+z7/8GlAMgFWEaX3z8QCfjOwcSMQBP/p8PJyKPQ8pGVlQWFR0SZWXtw+069IDjh3cB7nZ2ZeuO+Gb37HNdyIXOmHbNWkyJ63RBFaT0ub4/+vINyD7m67wf4wAI+AQCNBg36pdB7j2pknQvkt3q9pUUlIKJaWlUFxcDKVW5PYvLMiH9csXw7b1qyE9JdmqOu24cBnavgv5PWR6+qfPTIoQYAdAEZA1qKHDgVojhyOTI7AAWQj3hhgRPG4SOcBMjAAjoBcCnt7eEB5ZH3z99fHr6UCg5IQLpqN2S9GZMBqdOHoIVi+aL2PWdyg8D5nWQGhGleOqEAQtiGMAtED1cp10QPeBSpeO4PsOlT5b/PbcmRjTj07DpjS5wMQIMALOiICLiwuEoQNCbDQi52TpH7/ImjUTFWyTVcLytSNg5aJV7Qq5RK0IrK61RDUF6I9ryTyOf6kGHr7MCDACOiOwf+c2OHNKKh1KOjaBpvyZbIAAOwA2ALlKFbQEIExRB/bB9g1rhOVZkBFgBBgBLRDIzsyABbO+l1VNuVSKZZWwvGUIsANgGU4qS21BZTEyChfM/hESzp+TUcGyjAAjwAgoQ4BmJ+d8+xlkZtADvBRJrx9I1e5kwrwNUJ8Op3Rhg0WrLsG9wkf3/QtdruoL3j5qc4+L2sRyjAAj4JwI0OA//6cZsHf7VlkAYlHBU8gc6S+LpIXyPANgIVCKi32D+gpkdKYkJcBX77wOmelpMmpYlhFgBBgBYQRo8P9r7kzYunalsI5Kgp/j+5JKn/mtxgjwDIDGAFejnrJ50Ckf3aq5b9Hl3Ows+HfbFmjaqjUEh9a1SIYLMQKMACOgAoH8vFyY/fWnsHPTOhXqMlHJFGSpByMVhjiTDnYA9Ovtg1j1Q8hSWzEL8vNg99aN4O7uDk1atLY+G5l+7eeaGQFGwE4RiDl5HGZ8+DacPnZUVQumoSLhHVKqjHA2PUIJaZwNJA3b+zHq/o8q/bQveMKtd0L7bj2B9gozMQKMACOgEoHUpETcijwX1/u3AE3/K6ILqKcVco4ifazGQgR4lLAQKI2KBaNeOtaynkr9YZH1oM/gEdCj/yCoExKqUjXrYgQYASdDoKiwEKIO7sUUxGsg6sBeKMU0xoqJpv45wYliUC1Rxw6AJShpW+Z6VC+VG6Am80LDIqBZ67YQUb8BZhEMAP/AQPDx8atJhO8xAoyAkyJQVFQIORhbRPFFacnJpqQ+Z6NPQUmJZrF5SxHqsU4Kt+7NZgdA9y4wGUDe723GMIWtYAQYAUbAJggkYy0UCB1nk9q4kisQYAfgCkh0uUCP5DuR2+tSO1fKCDACjIBtEaB1hGuRV9i2Wq6tMgKcB6AyGvq9p+CXm5B5U79+fcA1MwKMgO0QeA2r4sHfdnibrYlnAMzCotvFPljzWmRO76dbF3DFjAAjoDECM1D/gxrXweotQIBnACwAyYZFtmNdk5E5GYYNQeeqGAFGwGYI/I41PWKz2riiGhHgGYAa4dHt5lCs+W9kf90s4IoZAUaAEVCLAB30cycyn/anFldhbTwDIAydpoLrUfvVyAma1sLKGQFGgBHQHgHKGPQuMu3358Ffe7wtroFnACyGSpeCjbBWOh+7uy61c6WMACPACMghkIvi9yL/JqeGpbVAgM8C0AJVdTrpgIyZyLRlZiAyz9ggCEyMACNgFwjsQitHI2+0C2ud0Eh2AIzf6TT4b0CmZYGeyBHITIwAI8AIGBUB2tb8JjI9+Sca1Ui2C4AdAPv5FsSiqd8hpyCTI8D5fBEEJkaAETAMAvSwQoF+E5ApxS99ZjIwAhwDYODOqcE0GvzpKOGnkevXUI5vMQKMACOgNQJFWAFt73sbOUrryli/OgTYAVCHpR6a3LFSSqd5H/IoZE9kJkaAEWAEbIHAUazkJ+SfkXnHEoJgb8QOgL31WPX2BuKtMReZMgq2Rub+RRCYGAFGQAkClKqckpVtQKbdSceRmewYAR4g7LjzajE9BO93RG6BfCvyCGRNyNXNDeo1agZ1QsNNRw77+AVoUg8rZQQcAYH4nFIoKhFrSWlxIRTmZkFBVipkxUdDUV62mCLLpGgX0mvIJ5FpsKdX2tPP5CAIsAPgIB1ZQzN88N4R5KY1lLH6VmSjpjDk2pvhqqFjoHWnHuDlTdUwMQKMQG0IrI4uhtR8BeNoWRlkXjgN5/aug5htf8P5feuhrEx53N04bM/i2trE9+0TAXYA7LPfrLH6FSw81RqBmso2b9cZ7nzqdeg7fCy4uHJagpqw4nuMgDkE1sYUQ3KeAgegivKM8yfhwPyP4fjq2VBWKjjFUEUnfqQn/07IhVfe4iv2jgA7APbegzXbH4q3Y5ClzxTw9vWDB196H66dfB8P/DVjzncZgRoRWH+mGBJz1TsAFZWmxhyGTR/fD8mn9lVckn19FBV8LauE5Y2HAOcBMF6fqLSItglSJi4patS8NXz4y1roNXgUuLiwzygFJgs7PQLRGaWQSxvnNCKfOuHQeuQUU5xA0ok9Kmppg0rIAdDOa1FhJeuwGgF2AKyGzG4EvNDSX5Clnv7bdukFH8xdDeH16VgCJkaAEZBF4EhKCRQqm6E3b42Lqxs06jUa3Dw84fz+DeYLWX6VAor3I9O2PyYHQoAdAAfqzCpNuRE/313lmlUfG7dsaxr8A4NpJYGJEWAEZBHAuD04kFhqs0fpyA79obSkCOIPb5U1PRgVzJFVwvLGQoCjuIzVHyqtuVlGmS9u5Zv63V8QUIecfyZGgBFQgUA2Tv2X2HgiveeU16FJb8oXJkXDUDpMSgMLGw4BdgAM1yVKDKKN+NfIaHr0jU+hfpMWMipYlhFgBKogkJanfJtelRrMfMS4nYFPfQsUGyBBlHX0Bgl5FjUgAuwAGLBTFJhE3rrwxvz23fvAyBumKDCDVTACjEBlBJTs/6+s0ML33oGh0POONywsXW0xyjTK5EAIsAPgQJ1ZqSn9Kr23+u09z07jaH+rUWMBRqB2BFI02P9fe63lJVqPugOC6re0tLi5cv3xIm8DMoeMnV5jB8BOO64Ws+kPVYhatO8CXfoMFpJlIUaAEageAVr6TyuwcQBAJXNcXFyh/biHK12x+m1dlGhrtRQLGBYBdgAM2zXChpGH3lVUevj4W0VFWY4RYARqQCAd0/+W6BACUNmkFoMmYiIvqc1fwr8tle3g98ZAgB0AY/SDSisiUJmfqMI+mOKXiRFgBNQjoOf0f0VrvIPqQkS73hUfRV6biwixjDERYAfAmP0iY5Vw6L5/UDA0bNZKpm6WZQQYgWoQSMvX+fH/ol3hbaUcgGbVNI8v2yEC7ADYYafVYnJkLfervd0CD/rhVL/VwsM3GAEpBFLypMSVCYc0o1PChamesCQLGg4BdgAM1yXSBglv/wsJ479tafRZASNgBoFijP3LLNQvALCyST7BtEooTMK/L8I1sqBmCLADoBm0uin2Fq3ZL4DyBzExAoyAagTScPsfpQE2Ann51ZExgx0AGfQMJssOgME6RIE5wn1aWFigoHpWwQgwAlURSNZx/39VW0qKpP7OhX9fqtrBn/VHgDtT/z5QbUG6qMLcrCxRUZZjBBiBGhCgGQCjUGGu1N95hlHawXbII8AOgDyGRtMg7ACcizlhtLawPYyAQyCQgjkAjEKZ50/KmJIqI8yyxkKAHQBj9YcKa5JElZyLOQnFxXhcGRMjwAgoQyAPIwBzi4zjAKTHHZNpW4qMMMsaCwF2AIzVHyqsob9uoQ3HhQX5EB11SIUNrIMRYAQuImCk6X8yKen4Hpm+iZIRZlljIcAOgLH6Q4U1uajkrKiiY/t3iYqyHCPACJhBwEjT/yWF+ZAaLeXkHzXTRL5kpwiwA2CnHVeL2cJ/4VH7d9aimm8zAoyANQikGigAMCX6IJQWF1pjftWy7ABURcSOP7MDYMedV4Ppu2u4V+MtngGoER6+yQhYhQCt/KfkWyWiaeHEKCkH/wIad05TA1m5TRFgB8CmcNusMuG/8jOnoiA3O9NmhnJFjIAjI5CNW+6LSowTAJh8Qmr9f7sj95Uzto0dAMfs9R3YLKFfnbLSUjh+8F/HRIVbxQjYGIEUgxwAVNHspGPCk4OkggOEKoB0kFd2ABykI6s0g7bqRFe5ZvFHXgawGCouyAjUiICR1v8LstIg48KpGu2t5abwzGItevm2TgiwA6AT8DaoVviPNYp3Atige7gKZ0Ag1UAJgJKO49O/+IEENKMotX7gDP1tb21kB8Deesxye4Wn63gGwHKQuSQjUB0CpThkphnKARD+SaAm0v5/4Syj1WHE1/VFgB0AffHXsnaKAxCipPg4SEk4LyTLQowAI1COAA3+5AQYhSQTAAn/nhil/WzHlQiwA3AlJo5yhSL5hPP68jKAo3wNuB16IWCk9X/CQNIBkJo+0KsPuN6aEWAHoGZ87PluHhovnBCIlwHsuevZdiMgYKT1/6yEM5CXnigDi3BMkUylLKstAuwAaIuv3tqF/2h5BkDvruP67R2B1DyhIzk0aXbSMakHeMxmAAc1MYyV6ooAOwC6wq955cIOAM0AUE4AJkaAEbAegSJc/M8UXoCzvr7aJJLkEgDtRf3kBDA5GALsADhYh1ZpjrADkJuTBWdPH6+ijj8yAoyAJQik0AKckQIA5RIAcQCgJZ1uh2XYAbDDTrPC5CNYVjivLx8MZAXSXJQRqISAkQIAy0pLIPnUvkrWWf1Wav3A6tpYwGYIsANgM6h1qYjm8IXz+nIgoC59xpU6AAJGOgI47cwRKM7PkUFVeCZRplKW1R4BdgC0x1jvGoT/eDkQUO+u4/rtFQEjzQAkygUApmIfnLTXfmC7a0aAHYCa8XGEu8IOwOmjB6AgnxYzmRgBRsBSBHKLyiC/2DgBAKYUwJYaf2U5mv43TmOutI+vSCDADoAEeHYiKuwAFBcXATkBTIwAI2A5Akaa/ierJR0A4d8PyxHjknohwA6AXsjbrt6zWJVwXl9eBrBdR3FNjoGAkab/ae0/PZbS+AsTOwDC0BlfkB0A4/eRCguFo3g5EFAF/KzDmRBIyTPOjHnSiX+htKRYBn7h3w6ZSlnWNgi426YarkVnBOiPeLyIDbwVUAQ1lhFFIC83G0qKyjPo5GRlQCkm1KF/OZmXH0TnHxhsqsLVzRX8/ANN7909PMHb10+0ajVyOPanG+oEQDwCWJxiUDRBXJwljY4AOwBG7yE19gkn8jh/5hRkpqVAYHCoGktYi9MhQAP5hdhouHD2NCTEnYHUpHjTdyozPfXiawq+4vv0FOnsk65ubhBYJxS/ryEXX/F9nRAICqkLIWH1IKJhE6jXuDlyM/Dx9VfeFxmFZVBkoASakgcA8fS/8m+IsRSyA2Cs/tDKGpoBoJ8lq5d8ysrK4PjBPdBz0CitbGO9DoJAauIFOHlkH5w8vA9ORx3EQf80DvrRkIUDva2otKQE0lMSTVxbnUEhYSZHoF6j5tCiXWdo2aGriem6KJkyAIoKayDHAYAagOpAKtkBcKDOrKEpGXiP8vq2raFMtbcoEJAdgGrhccobtD306N7tsH/HJjh+YI9p4CcHwJ4oIzUJiKP27YT1i3+7ZHpYZENogc5Am049oEufwdC261Xg4el16X5Nb1LzjfP4n5eeBNmJsTWZW9s9ngGoDSE7v88OgJ13oBXm0x+zkAPAgYBWoOygRWlL6KFdW2D/9o2wb9sGIKewuKjQIVubFB8HxNvXLjG1z8vbB9p16w1deg+Grv2GQvtufYCWGsyRkQIAE49Jjd8l2D7hLKLmsOFrxkOAHQDj9YlWFtEywB0iyo/iExKT8yGQn5uDg/162LjsT9NgmF0lEM9ZEKHZDnJ6iH/+9E0IwJiCbv2GQZ9h10C/kePALyDIBEUJPvxnGCgAMPn4HpkuOoTCUvmDZSpnWdsgwA6AbXA2Qi3CgYA0TZoQF4MBVE2N0A62QUMEcrMzYcvKv2Dd37/Bvn/WQ4ncFjINLdVPNcU0bFo238S0NNBjwAgYNn4StB5wHe5X8NTPsCo1Jx6X2gHAXn8VPB3xIzsAjtir5tu0Hy/Tmd6WLWZW0UFTvuwAVAHFQT5S4Ny+7Rtg9YI5OPgvBHryZ7IMgaLCAti+bqmJPbx8oGGvMdBq2K3QsMdIcHX3sEyJFqUweDdZzgGgGUMmB0eAHQAH7+BKzaMFWzoTtHelaxa/JQdg8LUTLS4vWrCstBROYfrho/t2QMK5M1BSXAy0Bktbtzr27A8NmrYUVc1ylRAgnA/t3gprF/0Cm5YvsGmkfiUzHOptUUEeRG9ZYGKfOmHQfOBN0GLILRDe9iqbtzPj/EkoyL48d4KVRgjPGFpZDxfXEQF2AHQEX4eqaVpPyAHQOhCQpp4XzPwClv36vSkAqzpsGrVoA8Oum4RTrpOhfpMW1RXj69UgQNvz1v39K6z/+3dIPC8VIV5NDXyZEKAI/MOLvzFxYL3m0GH8o9Bm1J3g7uVrE4CS5E4AzEUjj9jEUK5EVwRcdK2dK7c1AlOwwlkilXr5+MKiAyng5qbeZ9y6ahF89sqjkJZsXdIx2p41bNxkGDJ2IgTXjRBpllPI0EzK+sW/w9q/foGY44edos1GbCTNCnSZ+KzJGXBxsTolh1VN2vbtMybnwyqh/xXehG8H/+8jv3NUBNgBcNSeNd+u1nj5mPlbtV+dvnQPNMeEKSpp9mdTYfbnU4ESDokSOSXdBwxHZ2AS9Bs1Hnz9AkRVOYwcZW/chNH79LRPU/0y+DoMKAZpSIOuw2DwM9+Db0ikZhb9/fRgSBSfBfgQDXtOM+NYsWEQYAfAMF1hE0Oov1OQyxOpW1nlf975Fq6ZdK+VUtUX/+Wrd2HmR69VX0DgDsULdMeo7L7Dx0Jv3KYVEqbdj6yAeZqKxJ+NgW24d532rx/ABD20d5/JmAj4BEfA2P+uhKCG5JOrpdLiQvj5pgg8U4FifoXoFpSaJyTJQnaFADsAdtVdSoxdiVqE8vqOueUeePrd6UqM2LNlDbx017XSud9rMsbF1dWUza3HwJGmjG6UwIWWMhyFKG7i4MXkPLs3rYLoY7R1m8leEPCr2wDGvr8aAiKaKjWZ8v8v+s9AGZ1k0BkZBSxrHwiwA2Af/aTSyqmo7BURhc3bdoLpy+STg1EGuXtHdQY6aMiWRKfFte3SCzpdNfBi3vduUK9RM3BxMf6fAW3VOxdz0pRyl85mOLhzM5w4vBePei2xJYRcl2IE6jRqC9d//g+4eXor03xk8bfwz7dPi+pLREEOqBFFz87k1Ed02RkATmiu8P7emBNHgI5rlT1Fbd2i32w++FM/k+NB6+HEFURZ3CiugZyb+o1bQGSjpqYth/Qq286KOqx5pWx7NJUfH4en5+EJeudjT8Fp3BZJ0fvOsD/f29MFfLxcMdgUINCvPFDOzdXl0vsKLDNySk1HBdPn9KxSKENHKAdnvAuLK0rYx2v62Sj495d3oNddbykzOOmEVAZA3v6nrCeMr4gdAOP3kWoLt4sqpKfNk4f2mp6gRXWQ3PJ5P8qIK5Wlo2rpaZq4KtGpcKER9UzHytJxsnSsLB2LTMfN0lJCQFAdkwjlhfe9eCa9x8Uz6XOzsy5l0TOl0MUgx1Lce5+TlQl5OVl49G0q7r1PwcNo8ChcfKWgveSE8w67Hz/I3xWaN/CEZvU9TNy0ngfUreN2iUOD3CAk0A38fASi44txFuT4CVNfZOdjkAvmMUrOwtfsck7C99FJyMkAp/H5ll6pnFHo4IJPMXnQZKjTuJ0Sk5KOSWUAFH5AUGI8K7EpAuwA2BRuQ1RGU3y0vtdExBpKCERT6KJEg+HRvfbxkFFxWpxoW51Rzguf4Ds294Jubbyha+vy17ZNPU2Du2Z45NK29XLyx5l04iahFVfMv5JTcOQcZsaKBdiLvA//Io6cByjSYUWlFNMtH1r0FQx4/EvzxlpxtTAnEzLOlTtDVohVLrqz8gd+79gIsAPg2P1bXevoj1zYAahOqSXXaR8655e3BCn7KEPT9AO7+sKQHr4wuLuvadD3cLdxTEUlB8BS1MJwp+jgtuVcIVOAywe7owE2RAFsRP7nJJ6GIxxIX6HVsteT63+DXndPAy//8lkly6SuLJV0Yjdu+cRTicSI9uJKTR+IVctSeiHADoBeyOtbL03zCeX1lc0ImByPj11Mdo0APd2PG+QP1/b3h+5tvcFNYNZeKQA5/5sBkNHrhb+G/VuV88vXlc8G7DgFsARP0Vi8t3yGQEZ/TbLFBblwbu9aTB98Y03Far0nmQGQpg5omzCTkyDADoCTdHSVZgpP81FWOcrYJ5p5r7RUhznWKo3nj9YhQJskBnTxhUmjAuC6gf7QKMLDOgValqZdEAXaPKZ7YCDiANymT/xfdJdPYqLKv9ER+B3/enaeVt+o+MNb5R0AuSOAhX8X1KPBGm2BADsAtkDZeHXQNB/FSwv1P80C9MFEOyLkHyiUg0ikKpaRRKBjCy+4bXQg3Hp1IDSONNCgX7ldip7+K6us7n1L3Bz39OhyPh4P8Mt25G0AJ9AxUEGSwXsmEygHgARxAKAEePYoKjQA2GND2ebLEMA4adNhH0J5fY8d2C3sADRshnOsTIZFgJ7uJ48KhNvGBELnlkInR9u2bTn0VbY9tY4EeGNCOdMyATkDv2Nsa0KmuC35mXKz7zlJcZCbekHcAJzYkBFmWftDgB0A++szVRbTH7uQA3B0n/jvBB3r6x9YB0xb41S1hPVIIRAc4AY3DQ8wPe1TQB8mULQPopC1LNzrpzP1boFHbCJ/PBlgIT6AT/xKzKDCnAwxwYtSicel4vcobzRGOzA5EwLsADhTb1/eVpruu+/yS5Z9oiUAOlxGJIMeybTu1AP+3brWssq4lCYI+Hi5wNgB/jjoB8Hovn5A2/fsjvIw+K/YOJl/KBiyWZg4ipS6WoaS5BwAGvzzZOpnWftDgB0A++szVRYLb8anp3dKSys6nd8G0/GKOgCUQOaRm4Jh3ppM2H3UQNlcVPWKhnpogBreyw9uxXX964cEXJFdT8OqtVGdiZv5DUYywYH+4Y2lWiMZQyD8eyBlNAvrigA7ALrCr2vldHIMLaD6iVhxbP9OYQeA8vGLUlxiMTw6sQ48NyUETsUVwR9rM2HRxmzYeSQPM+2JanVcOU8PF9P+/HEYvU/T/JGhDvQnb4Dp/6rfHCkHIKxRVXUWf6a9/8mn9llc3kxBDgA0A4qjX3KgXwNH7yrl7cP9U0An+wwU0UyBgMMn3CYiajqQR0gQhYpLymDvsQLo38UHWjT0gBfvDDVxQmoxLNmSDUu35MD6PbmYH56a55wUHuwGo/r44V79ALgaXyty6jsUGnk4W11Ey9bGIhkHIKRZR+HGpMdGQVGuRAQiBwAKY2/PguwA2HPvydtO0XxCDoBMIGBIeD0Iq9cIki6cFWrBzsN5JgegsnBEiDvcO66OiUtwJuDfqHxYuwudgd25sP1QHmTi4TGOSmE44A/qhtn4MBPf0J6+0L6ZF8ZnOGprL7bLgNP/meiTREkE4Ye1Fp8Zk0wARNGHxxz8G8PNM4MAOwBmQHGiS8LTfqeO7IeiwgLw8BTbKkbLAMIOwJGa1/5prbtXe28T0wwBLQ0cjSmAXShHzgO9Ho0phJw8+3MK6NAcysTXrQ3m2W9Nr97Qpomn4w/4lf8oSzH8P0MuYr6yOlXvd8cAkGlChB5beJueQqIkJLkDgLYP2N8fgzBaLFiBADsAFUg456tw4A8N/nREbZvOYj9aFAi4ecUCIdRpELeGKLi6Ax5QQ3zX2CCTKG5igNj4Iog6UwhHowtMr2cTik3XKM5AzyWEOrgtr3kDj3Ku73npPR2qY6gsfNZ0gsqyeKIirgWp1KhEl8z0f2BkM/AKCBG2Q3IHgPDvgLDBLGgIBNgBMEQ36GZEDNacgBwhYgFtBxR1AGQCAU+fK4KktBKgqW9RoinyJrijgJjWyatSdm4pxCYUQUJqCaRmlEB6NjKeO0+OQXp2KaRllkBhUfnjXk5+2aX3+YWlkIefad3dzc0F8Ch7oKNwiWirna+3K7jjdXqSr8p0PC61KcC3vHxVm/jzRQRS0w0JhYwDENZazJEmIIoL8yDtzBEZTIRnAmUqZVn9EWAHQP8+0NsC+uMXyutLRwOPm/KwkP2tO/cAVzc3KKVc7gJEUf90GI1W5I+DMK2lt2+mVQ2sVwiBfMz7TwGABiTKCChKYW3E1/9TTu6D0mKpgEjxzF6iDWY5QyDAjxqG6AZdjRD2/qNwK6Ao+fj6Q+MWbUXFTev4wsIsaL8IpKUZ0va4VIDzEhMTUuv/x4T/hAnLOOTzhgSVjdIcAXYANIfY8BUIj+Jxp49LpfSVWQbYgZH9TE6GAM0WZUhtddMMsF3R4qpd3T0gpLlQVm5TpclyBwAJ//2Lt5gljYIAOwBG6Qn97KAfAKHYZUoHfPyg+OljbTqLT3tuO5gHtN2PyYkQSMHHbINme9p8XLwfQpp2BHdPH2EFkjsA2AEQRt7+BdkBsP8+lG0B/qrCSVElFAgoSrQTQJQyMBBv3/GatwOK6mY5AyJQik//Bp3+J7Q2RIljFiax/a8gKxWyEmLEK+cEQDLY2b0sOwB234VKGiD8FECBgKLUrG1H8PIWf/LZgBn/mJwEgRRc+zfolE9aDh6jFyveD2GteggLJ0bh3x/taRUjmkMTn8ITq5OlDIQAOwAG6gwdTREexaMkjgZ2x7XPtl2vEm72xn/ZARAGz54EaeAnB8CgtAlz6AknAMI2RXToJ9wyyf3/R7FiYwZVCCPCgtYgwA6ANWg5btkdok1LTYoXzuhHdXbuPUi0ati0N9eoD4XCbWJBMwik0tq/2HZRM9qUX9ookUTXNyQSguq3FLYp6biw7051SgkLG82ChkGAHQDDdIWuhtAxYoWiFhzctUVUFLr0HiwsS3EAe/hIYGH87EKwuBiAHAAD01qJHDz1Oot//8vQKUo4Kuy7E6JSwgbuEjbNQgTYAbAQKAcvRtF0B0TbeGDHJlFRaNetN3h6eQvLL9xgvDPhhRvDglcikJBk2LV/MvZEAv7hiJ1pZWprvU7iM2DJmACoMEfqTATh2J8rO4qv2CMC7ADYY69pY7Pwj8H+7RuFLaLBXyYOYN4aXsIUBt/ogpTxz4CH/lSG7U86RkeC6nUeKCwdf0h85g0rpUQaB4UrZ0GHQIAdAIfoRiWN2CaqJS76BKQkiCcTk4kDoHMB9p/A9LBMjoUABbbH4+O1wUnGAZBd/79wUHzmDWGl9X+p/MEG7xo2zwIE2AGwACQnKbJVpp0Hdm4WFu/Wd6iwLAn+uY6XAaQANKJwOubVzTN2noczKbiHLkYcvPpdxL/3tP4ff/gf8coBpP7eZSpmWeMgwA6AcfpCb0ui0YALokYc2Cn+NNKhZz8ICgkTrZodAGHkDCpIKX8Tce3f4PQnPkOLb8EHaNpvnHALU04fkF3/ZwdAGH3HEWQHwHH6UkVLhB8pZAIB3dzcod/I64TtPxJdADsPG/tpUbhxzih4IR4D/4y77a+iS2YL/7UAuHv5QsPuIypUWf164YC4w42V0QKL8JKf1caygGERYAfAsF2ji2HC8/hnTx2TigMYOPoGqQZPX2jcRDFSDXM24XSMas80/pLO1hMA+2LFO6dRr9Hg7u0nrOD8AfHAW6z0ELKx91YKI8OC1iDADoA1aDl+2TWiTaSDgbau/ltUHLr1HwYBdUKE5X9dmQlpWcZ/ahRuoDMIFmFMWoLxA/+oK75dL9chzfpPEFZQlJcF5/dvEJZHwdUywizrOAiwA+A4famiJYdRSZyooi0rFoqKAqUF7jt8rLB8XkEZzF7GWwKFATSC4Hma+qf09MamlGyA+RRDL0hunt7QqOcoQWmA2J3LoaRQaslL2NEXNpoFDYkAOwCG7BZdjVonWvv+HRshI1U8eGvg6OtFqzbJfftnmlRQllTlLCyHAGX7y8FTdeyAfsSFsnyJDXS09u/hGyjc0pitfwnLoiBl/BRe6pOpmGWNhwA7AMbrE70tEp4eLMXArW1rlwrb33PQKKgTGi4sfzSmEFbvtI9BRLiRjiiYizlpKOOfHVARrjJ9vVbO0JZDJwsrKC7IhbN7hP9EqV4KXcQ5DCZGAIAdAP4WVEVgGV7ABOxitHn5AjFBlHL38ISrJ94pLE+Cb8xIlpJnYRsjQOv+Z3HVSWY/nQ1Npsj/GImvmE9wBDTpI77UFYeDf3G+lJO72IZwcVUGR4AdAIN3kA7mUXSw8Aanf7esgewM8Yj8ayfdDy6u4l/LbQfzYN1uPiZYh++N9VXSGbpx5+xiyx81jsIT3hOf4DLh03b0PeCK8S6iFC03/U/VsgMgCr4Dyon/0jogGNykSwgIh/MXFxfBjg3LLymy9k29xs2gxwDx/dFU39QfJB7RrDWYy4sjQKl+DZ7tr3LjftkOcBzjFEXJxcUV2owSn+EqLS6Es7tWiFZPcoeRT8goYFnHQoAdAMfqT1WtWSSjaN2iX2XEYezk+6XkN+zJhU17eRZACkSthVNwoonS/doJ0dP/O5LPzo2uGg3+4Y2FW0zR/5Kn/wk79sJGs6ChEWAHwNDdo5txJ7HmA6K179q0ChLiYkTFoc+IsVA3soGwPAm+8k2yvSwrS7XTLoUzcLtmYqJdmT4HF8WihBNllze13Zj7pNp8dPkPUvIoLB6gI1szyxsSAXYADNkthjDqN1ErykpLYfm8maLiQKmBx93+kLA8CW7elwt8VLAUhNoI01a/CziS4vK/vVAWbrl/ab6ctUH1W0JDib3/WQkxcH6v8A5dMv4U8m65VrC0oyHADoCj9ai69vyCqoR/ppf//iNQPIAojb/jEfAPChYVN8k9+1ki5OTh3C2TMRCg9f6zGPRHwX92RFNxQeyC5GpF10nPA8UAiFLU8h9xRkvqu0x/z0yMwGUIiH8jL1PDHxwQgTPYph2i7UpNiocdEjkBfP0D4fq7HhOt3iQXl1gM782iTQ1MuiNQiPlnYs/i4C81iNm8GadwpeLz1XLV0rp/i8G3CCspRUf6xNo5wvIXBX+XVcDyjocAOwCO16cqWyT11LDk1++kbLnxnifBP7COlI4PZqdA9HnxmQipylm4HIGCAtw8H2s32/0qd9uTcwEKhLNilGvqessLUlv/zmxfDLmpEtsPAPajJbQDgIkRuAwBdgAug4M/VEEAf/4Af73FaM/m1XA+9rSYMEr5BQTBuCkPC8uTYH5hGTz2AW43Y9IHgXyc9qfBv1hyFNXB+j9xxXwpDZ0S5B/WCFqPuE1CA4CC4D/p6EGpBrCwYRFgB8CwXWMIw2j+XDjxOJ0QuEzBLICvX4AUGMu2ZsP3iyQXcaUscFLhXNyKaadP/kl4IvGjs+T7rfPEZ/Dp31NYUXrcMdmT/9ADA3LkmRiBKxBgB+AKSPhCFQTEw/lR0eK5M6QyAwYGh8L1dz9exSTrPz7zaSLEXOClAOuRE5SgwT8WU/za2Zp/RWsfwG99Au5WlKGAiCbQZuQdMipg/7yPZNMk0xGdHAgj1QuOK8wOgOP2raqWrUZFFBAoRLnZmbDgpy+EZCuEJj/8AoTXb1zxUeg1M6cUprx+3l7HI6E26yZE+/zP2F/AXwVes7bitNe/FZ/EX3vf91+go39Fibb+ndooHbvH0/+iHeAEcuwAOEEnSzaRwra/ldGx4MfPIScrQ1iFl48v3PPcVGH5CsEt+/Lgi3ni5xRU6OHXGhBIwLD5c+dln1prqEDbW3H4rEyBf7JUv8sQaNpvvJSa/X98BLQDQIKOouw6CXkWdXAE2AFw8A5W1LzpqEc4ty4N/ovnkgpxGjZuMnTqNUBcwUXJ5z5PhK378fhZJrUI0FQ/nepHKX7tlOio38no6qYLf9PLG+7i6gZ97n9fCgWK+j+xVtoT+RKNsK+kC1KosbC1CLADYC1izlmeHpulEvzP/+4TyMsVP4bcxcUFHnntE6mTAqnriorLYOJL5+BCsv1FpRv2q0cR/hTslyXev0Zo2xO41X7LcXlL2l17P4Q06yil6MD8j6CkkOL3hAnDGEE6eYBw7SxoFwiwA2AX3WQII6UW8jPSkmH5bz9KNaRlh65w9Y13SOkgYRr8yQkgZ4BJEoEsHGdOReN+S6nBStIIefHZ/+A613p5PV4BwdDjtlekFOWlJ0HUiplSOlCY/tgkwxhlTWB5oyPADoDRe8g49tGO6FUy5sz77iMoyJObX73vxXchuG6EjBkmWVoGeOmrJGk9TqsAt3gCHedLqX1LcO7cjmlPDABF/augPve/B14BIVKqDi74FIoLpP5OaHrrUykjWNgpEHBzilZyI1UhQOehCT+C5+VkgYenF3TuPUjYHm8MCKzfpAVsWDJPWEeF4PZDedCkngd0bS0eqV2hy6le8zE3FKX1zbbvKX/qs3O4uDXqQwxdUNCUJn3GQq+75IJVKfJ/48f3Q1mJ1BIVZfBU5NI41Tfb6RrLDoDTdblUg6NRejRyQ1EtUft2wojrbzNl+RPV0bhFW4g/GwOnjx4QVXFJbsnmbOjU0gvaNfW6dI3fVIMAPvRDGo6YcfjUb4eZ/aq2KgNjQUdirN5xqSy75Vq9A0Nh9Jt/gYePf9VqrPq8+bOHIS1GKmsv9dIU5ESrKubCTokALwE4ZbdLNfoDGemC/Dz48cPXZFSYZB99/RMIq9dIWk9JKcBtr54H2iLIVAMC9NQfg+kgaNqfpv/tnPLwbKLrPsEk+TiRoYL6PfIp+ATLLU1dOLgJYv5ZJGvOUlRwUFYJyzsHAuwAOEc/q2zlQlQmlSF93aJf4NDurVI20TkBz77/HR6x6iKlh4TzCspgwnNxcCQaBzmmyxGgwT4pGSA6BoFyDCeJnL4pMwA2K4j4J7BaDL4Zmg+88XLcrPxER/3u+P4lK6XMFp9m9ipfZATMIMAOgBlQ+FKNCNDj3xs1lqjlJp0RMP2d5/FBUu5Jsnv/4TD21gdqqc2y2ykZJTD6iTg4fU4q8YplldlLqZwcjPA/Xe4ASPaVUZpcil+5+2cC0EE/KsgvtD70e/hjaVXHVv4EySf3yur5GxXskFXC8s6DAMcAOE9fq2xpFCq7BrmBqNLk+HPQoGkLaN62s6gKk1z3AcNh96ZVkJKA2eckidIFz1uTBWP6+UF4sLukNjsWp+n+87gwTk/+9LjsIERNufdHgJ+2qGmQq7sHjHr9T6jTsLWUwqK8LFjz9mQozkeHS5zIm56MrCCiQdwIlrQvBHgGwL76y0jWvi5rzPfvvyyVIpjqp10Fr38zD4JCwmTNMcnHpxTDsIdjYf8JJ1wOKMLZjws4fpyOdogI/8pfiEIMqr/la4CfFQ3+pLvvAx9CZId+lasRer971puQl4axFXK0AMX3yalgaWdDgGcAnK3H1bX3JKoagNxcVGVudhakJSdAv5HjRFWY5CgeoHWn7rBu0a+4rCD/xJqTXwa/r86CIT18oWG4h5RtdiFcjPv46Wn/PO7yzLPvhD7m8C64OPgv3GPurti1lkMn4Za/t8SEK0klHN0OW798Aq/QA7ww0boVBSGkCGtgQadEgB0Ap+x2ZY2mfXi0CC8ciXfqyH5o26UXLge0kjIqslEz02zAv1vXSumpEM4vLIM/1mZBr/be0LyBZ8Vlx3otxHGjYuCn43ulxiBjQpOKs+rjMCXOSoVx8aEtusDIV+eBq5ucc0jJfla+Oh7ys6TH7a8Q/bnG7AG2ysgIsANg5N4xvm00b0kzAF1lTN2/fSOMnngXeHr7yKiBDj36QczxwxB78qiUngrhAnQCflmZBeEh7tCznXfFZft/pWh+OrUvHqf76YnfQQL8qnbMMWze8PcA/hU+zLqqRsAsf8FwzTvLwCdIfslpx/cvwtk9q66sxLor6Vj8JmSp1IHWVcmlHQUBdgAcpSf1awfFUz+ELPw4RBkC01ISoP/I8VKtoC2BfYaPhQM7NkHi+bNSuiqEKWp86ZZs0/kBFBzo6io82VGhUp9XGuQzs8oHfXrqLyjUxw4b1brmMGas+qg805+qKt09feDqNxdCaLNO0irjD22Bf77+D+qRnnZ5BZWomfaSbhUrsDcE2AGwtx4znr2ZaBKNisNkTKOlgBbtugBl+ZMhd4zM7o8xBdvXLYWMVBzoFNGeqHzYdSQfrhsYAN6eduQE0CE9yTjFTOv7GdhVRbgg7uD0zTqA22fgI7HCOE464nf4/82Fht2GS6NHU/8rXp8ABVmpsrqOo4K7kTGIg4kRsB4BO/ols75xLGEzBCiPLiUHaiNTY93IBvDd8r3gHxQso8YkS9sMn7xpEM4ExErrqqygKZ4dMHcq7v3uLLdcUVmn8veF+HRPT/vpGQD03kkoC32dZ38DmLFBcYNxZmng419Bm6vvUqL4n2+fhiOLv1Whi7wRdHeYGAExBHgGQAw3lrocAXoCiUK+4/LL1n2iXQFnThyBoWNvls7w5+sfCD0HjoL1S36HQkw/rIrSs0th1tJMoKWBQd180U5VmiX10JN+Gi4H09p+Ip5ymINLwnZ+Sp81iOyJwUN9MEn1apz6V009prwGHSc8pkTtmR1LMePfiyp0/YpKPlShiHU4LwLsADhv36tu+WlU2B65g4ziuOgT4OHlDZ16DZBRY5KtExpmCgykkwNLimmnlBqiwX/jv7mw/WAejOrjB/4+rmoUW6OFBnc6jY+m92nvfmoaznnjoO8Ah/RYAwOFNny8EuBWfKBOwkkP1dT+2gfgqrunKVGbcf4krMSp/5JC6bUJWnajgBkNWqykqazEThAwyvOLncDFZtaCQF28fwRZKkTaxdUV3p25BHoMHFlLdZbdpqDAV++bALkYbKiaInCHwJfPRcBNwwNUq75SHw36tI6fhe3IxVkNB43ev7Lh5q9E40THgz9p89RPNbYf+yD0e+hjjHCR/5ksLsyDxc8Og5RTtFImTbT19jtpLazA6RGQ/2Y7PYQMQBUEpuDnWVWuWf2xTmg4fL14B4RFNrRa1pzA8YN74MU7r4GsdOnAK3Pq4dr+/vDV8xHQBGMElBNN56fj9D4N/DT94OREeYu+WgvwygKcBMGVDy2o0w1PQe973lYy+JN9Gz9+AE6snaPC1A2oZBgyfxFUoOnkOtgBcPIvgEbNX4R6x8nqbtetN3z82zpw91CTiOfk4X3w4h1jICNN3e6Aym309XaF1+4LhWdvDwU3FasCWRen+B3kFL7KWIm+33sGM0/9BLA7WlRD7XJdbnoGet09tfaCFpY4snQGbvl7ysLSNRZDTxC6IJ+ssRTfZAQsRIBjACwEiotZhcBWLH03srdVUlUKUyR/bnYm9Bo8usodsY8h4ZFw1dAxsGXFQsjPzRFTUoNUUXEZrNmZa8ob0KaJJ9COASHKRtvOnitf13eyNf3q8ErAlY8X5pVP+Z/DcAetiNL7dr/tFWXqk47vhvXv3QFlpThtIU/PoIoV8mpYAyNQjgA7APxN0AIBClKip5SbZZVH7dsJQcF1TemCZXWRPC0tULKgnRuWQ3YGJVFTTxeSi+GnJRmmvAGdWnoBxQlYRLRl7xzu1zedwqdkwLCoWiMXoq197yzGY+4wyG/rCe3CHlzd3KEvHuvbacLjyuDIST4Hy1+5DgqylXgsq9GwJ5QZx4oYAUSAHQD+GmiFAOXjbYXcWbaC3ZtXQ7M2HaBxy3ayqkzyQcGhMGLCbRC1fxckxOGcskZ04mwhzFiYDodPFUD3tj4QEljNnxut5tIafxw+9RdIR4hr1Brbqi1C/+eHTXjCzReYiRHj5ug0P63IwycAhr80F+iAH1VUkJUGS18aDVnxStYqyIMYg4yJHZgYAXUIcAyAOixZ05UI1MFLFPbc+Mpb1l3x8vGF92evhPbd+1gnWEPp4qJC+OTlh2HVfOmYxRpqKb/lhdkDbx8dBE/fFgztm1HepItET/2UpY+i+pmAnvhp4P8Ut/adwR2OWlNAZDO4+vX5UKexGueS7C0pzMcn/7EQf/gfVeZPREXzVSljPYxABQLsAFQgwa9aIdAbFeNPOkhH8gXik/un8zZCoxZtlNq6cOYX8M3bz+I6balSvdUp69/FB164IxSu64olaPB3ooQ91WFCa/yUwvcLnOimE/xsQRHt+sCIV34Hnzphyqqj46jXvXs7RG/9S5VOXPyAh1UpYz2MQGUE2AGojAa/1wqB51Dx+yqURzZqCp/N3wwhYZEq1F3SsXXVInj/2XtMQYeXLmr8pkdTgMdH4DR3TwB/qXBJjQ3VUP0/GCkyYwPAr9u1neav2oTWI++A/o9+Bm4elWZjqhYS+Lx9xnNwaNFXApJmRQ7gVZry4ukhs/DwRVkE2AGQRZDlLUGAvme0NfA6SwrXVqZVx27w4S9rgNL9qqSEc2fg3SenwOF/t6lUW6suH5wbGYubux4YgsfXYi5FBXlnaq1TzwIUxT8HZ8d/3AxwPN62ltB6f/9HPoGWw25VXvH++R/BrpmvqtJL6/09kE+pUsh6GIGqCLADUBUR/qwVAiGoeDdyMxUVUI6Ad39aCn4BQSrUXdJBcQE/fvgqzP/+E0y0Z/tcK81wNnpKP4Dr8ae/q3TkxKVm6f6G0vRSMN9c9K3WYa5IPfIZ1W3ZDYa+8DME1W+pHI+DCz6DHT+8pEovffFuRF6oSiHrYQTMIcAOgDlU+JpWCFCkFU72gpJHd5oJ+O/Py4FiA1TT3n/WwX+fvgtSE3GNXicKR5Su7ojTJt0wBLyT/S0TnMZUvYv3AizBgX9DFB5ToNfORpxS6XDdw3AVZvZTPeVPX40D8z+GnTNfUfkteQuVva5SIetiBMwhwA6AOVT4mpYITEDlC5CVfPdatO8C781eYcoVoNro1KR4+OiF+zFnwArVqq3W54dL1SPwmKVrOpdzQ5pPMRjlF5UP9PSkT0y5+vUm35BIGPjEN9Co19WamKJ42p9s/Bv5emTbRKRSjUxOi4CSH2GnRY8bLooAPeEoWyxt3rYTvD9nJQSFqIvmrtywtYt+gW+nPQfpKYmVL+v6vkdTPAEPw8MmIdenzZY6Ee3PX3GwfE2fBv1c3NVoCMKn/raj7zGd5Ofpp3aZqKJ9u2e9Aft+VxLbWqESF0egL3JmxQV+ZQS0RIAdAC3RZd3VIUDfu1nIt1dXwNrrtDXwgzmrIDSivrWiFpWnQ4RmvPsCrJz/sy6xAdUZSWcOjMJlgsdwN8FoXCZwtdFfNE3vf70W4KctACl4ZIGRiPb0D3jsC4jsgMEUGtHuWW/i4P+eSu3JqIwG/5MqlbIuRqAmBGz0c1GTCXzPSRGgjW+U3nSAqvY3bNYK3v5xMdRv0kKVyiv07N++ET575RE4e/r4Fff0vtAyAuBpnOm+ZxCAl7s21mzHmHRKzUtP+3oE8tXUKjdPb+h683PQZeIz4OounXbCbFWlJcWmg32iVvxo9r7gRTrkZxjyDkF5FmMEhBBgB0AINhZShABF721FbqNIHwTUCYHXv54HXfoMVqXyCj2FBfnw54+fwbzpH0J2ZvoV9/W+QPEBL1xTvq3QU5EjsAMH/tcxt81KnO43HOF0f9M+15lO8AtqQNmntaGivCxY996dcHaX0pgQWuufiExxMUyMgE0RYAfApnBzZWYQoMd13BEO9czcE7rk4ekFT7/7LYy4XtkKg1k7aFng9xkfAmUSJKfAaNQKZwTevglHl17ilsWlAvzffFzj36bdQTzi1gGEt+2N6/xTIbKjsokks+ZkJcTAyjduhPTYo2bvS1x8DGW/kpBnUUZAGAF2AIShY0GFCOAqNmxExmdXdXT9XY/Bw698BC6uuFCuISWej4WfP3kTVi+cY7N0+0z+dwAAQABJREFUwtY052qMDfjmDkzAYEWMJB3G88EygGk43Z9nlMC+So0OadoBet01FaP7R1e6qs3bxGO7YPVbEyEvXXkQ6Gto8VRtrGatjEDtCLADUDtGXMI2CPTGatYg+6usbtCYG+H5j2aCl7ePSrVmdUUfOwSzP5sKW1b9ZThHgLYRvn0jph4eWXug4N4zGEfwA8C+WLPN1PVinUZtTWv8LYdNxoyJ2jp21NDoLQth40f3QXFhnup201M/Pf0zMQK6IcAOgG7Qc8VmEMDhyZQyWOlo3bZLL3jli18gomFTM1WqvxR/NgYWzPwMls+bCfm5OeorkNA4tB1O5z9ofusgJT78HMMyn59n27z8ljQnon1f6Dj+UWjabzzO6LhZIiJVhoL9/p07DfbN+0CLtY+ZaNy9yIg4EyOgHwLsAOiHPddsHoFBeHkJcoD522JX6dyA/7zzDQwZe7OYAgGpjLRkWDxnOiya9bWhcghEBGJK3ofKzx2oaBadwDdlOsCyAxVX9H+lgb5Z/wnQ6YanIKx1D5sZlJMUB+s/uBuP86X4VOX0HWpE9DnRj3JkWaHVCLADYDVkLGADBPpjHbgCrSZlcGV7KTDwqWlfgZePb+XLmr6nAMF1f/8GK//4CQ7v+ccQeQTc8SH648nlpxEePQ8w7jPcgJ6gKQwWK/cLrQ8th06GttfcCwERTS2WU1HwzI6lsOmTB6EgC6Mf1dM3qPJRZH7yV48taxRAgB0AAdBYxCYI0CPfSuRQ1bU1bdUeXv7yV6BXW9P5M6dg1Z+zYPWCOUDBg3rTDYjy2iMAGcqXuK1rGe3hp618rUbcDg26DbPJNH9lC0uLi2DP7Ldg/58fazHlT1XhWgI8X7lOfs8I6I0AOwB69wDXXxMC3fHmKmTlToCPrz88MfULzbcKVte4stJS2Ld9AzoDs+Gf1X9DbnZmdUUd9joF8YW362162m8xeCJolbK3NgAzz5/C/f13QPJJPLlIG3oL1b6ujWrWygiII8AOgDh2LGkbBDBsDdYiK8sTUNns3kOvMTkC4fUbV75s0/elJSVwZO922L5uqckZOHvqmE3rt2Vl7l6+UL/LYGjc+1pofNUY8A3RpFstalJZWSkcW/kT7Pj+RSjK0yyfMQ385AAwMQKGQ4AdAMN1CRtkBgFyAmgmoKGZe9KXKEDw3uffhutufUDznAGWGHvmxFHYvnaJySEgx4AcBHsm//DG0Bj36zfuMxbqdRqoyZG81uKTcvoAbP7sYS2f+kvRpv8gf26tbVyeEbAVAuwA2ApprkcWAXpUpN0BtCygCXXo3heewgyCesQGVNegzLQU2LVpJWxa9ifsXL8cinGt2h4ouEk7aDlkEjS66hqgpD1GIdrPf+CPj03b+0qLNctwRHs/b0fG5MlMjIBxEWAHwLh9w5ZdiQAlCfod+Zorb6m54u7uATfe9xTc+dTrQCmFjUQZqUmYbXAu/PXzl5AQd8ZIpplscfPwKo/eH3OvTbftWQoEbevb8vljkB6n6RIL7qmA8ci7LbWLyzECeiHADoBeyHO9ogh4oCBlUbtfVIElcnSy4D3PTYMBV1+PGeeM9WdSgklqNi2bD7M/nwZGiBegdf321z0EnSY8Dj7BEZbAa9MymRdOw+5Zb8DpzX9qFeFf0Z49+GYcMjkBTIyA4REw1i+b4eFiAw2EwANoy5fI5BBoRpRF8P4X/wude1N+ImMROQLLf5+J5xC8oU+iIXSMWo+YAj1ufxX86jYwFjhoDe3lPzD/Ezi06EsoKSrQ2j7KWzEJOUvrilg/I6AKAXYAVCHJevRAYCBWOh85XOvKu/cfDg++/AE0b4sn6xiM6Eji7997CZb99oPNkgwF1m8BAx77AiP6hxgMDYDiglw4vPgb2I9pfAtzbLK9kgL9KOCPAv+YGAG7QYAdALvpKja0GgSa4/XfkHtVc1/ZZTc3dxh9810w5YlXITSivjK9qhTt2rgS3n/2Hm1nA/Cpv+O4R6EXHsFLa/5GIsrff2LNHNgzZyrkpl6whWm0d/Bh5Dm2qIzrYARUI8AOgGpEWZ8eCLhjpa8gv4rsqrUB7h6epjMFbnnoOUPtGKB2pyZegLefvB0O7NikHAZK1DPkmR9wD79mMZhCNtMe/mOrfoZDf30B2YmxQjoEhA6jzC3I9MrECNglAuwA2GW3sdHVIDACr89GjqzmvtLLFBzYrd8wuP6ux6DP8LFKdYsqS8svgwMJhbDgw//AkaV07owaCohsBle/8SfQcbxGobz0JDi6dAZO93+N6/1ptjSLvmN4piLonEDZlk3muhwRAXYAHLFXnbtNFIY+C3mULWFo1bEbOgKPw7Dxk4GWCmxNRSVlsCe+FGIzSy+dNLP313dwOnyatCl1W3SF0VP/Bu+gutK6VCigqP7Df38Nx1bMBNrXb0PKwLoo+HSeDevkqhgBzRBgB0AzaFmxjgjgWXeXlgTovc2ofuPmMOqmO2HUjVMgrF4jm9SbnFsG286VQG7xlYfMHVzwKez44f+E7aDBf8zbS8ArIERYhwrBksJ8OLN9CRxfMxvO/bsWgx1tHm+3BdtxK/JZFe1hHYyAERBgB8AIvcA2aIUA7d37CbmZVhVUp9fF1RW69R2KzsAdplwCXt4+1RWVup6QUwZb44qhqIbxcOHjfYBS34rQ+E82YVKfniKiSmSSju82Bfad2jgPCrLTlei0UgmlXnwHmaZSiq2U5eKMgKERsP1cpaHhYOMcDAGKhOuI/Bryc8iuyDYhOu3v361rTezr/zj0GzkORt5wuylmQFVioVRc7998thhw9r9GcnEVnwSRka3RqBpu5qUlwKlN83Hgny3suNSg3ppb5DXdg0wJfpgYAYdDgB0Ah+tSblAVBHLx84vIlKjle+RWyDYlOup3zcI5JqZTB3sPHWMKGuzadwh4enkL2VKAo/7WsyW1Dv5CynUQSjtzFGJ3LYPYHcsgMWonlJXqegASZQ2iJ/73kGkGgIkRcEgE2AFwyG7lRplBoGI2gBK2vIEsNvKaUWzNpcTzsbB47nQT07JAhx79oM+wa2HgmBugbmQDi1XtTzC/5m+xAp0L0gCfcHQHnN253LS2r3F+fmtauxELP4J8xBohLssI2CMCHANgj73GNssiQLMAXyGPlFWkSp5iBtp06gF9R1xnWi5o2rr6E/TScep/ZQwuR9cy9V9h219P9hc+9nbCZ1uhbstuFaqkXmkN/+zOZXAGn/Lj/l0DRbmZUvoUC8ejvmeR5yrWy+oYAcMiwDMAhu0aNkxDBE6gbtomeBPy+8g2DxLEOi8jihmI2r/LxDM/eg3oDILxdzwCQ8dNumJb4YlUnB63cPC/rBKdPqRGH4KDCz+D6M0LbL1tz5IW05nAXyDTlL8uUYaWGMllGAEtELBZUJQWxrNORkASATpHoB3yC8i0x9swRM7Ae8/cDfeO7ARbV/7vWHna6RebaR+jP2XlW/vubbDg8d5wYu1cIw7+C7DDaaqFnvx58DfMt58NsRUC7ADYCmmux6gIUMAXzQK0Rv4SmZ4IDUPnYk7CGw9PhNceuAGy0lOB9vyb2e5vGHsrDDmKWQjnP9Qdorcs1PoI3ooqrXn9BwsPRr4R+aQ1glyWEXAkBNgBcKTe5LbIIJCIwo8jt0SegWyoPd/b1iyGh8b2gn3/7kbTjEuUsGfzZ4/A1q+fNJ3KZzBLKW//zcgDkCkolIkRcGoE2AFw6u7nxptBgDK9UZ53yh9AAWGGcQRoB8HnD44of6pGw4xGuanxsPjZYXgwz09GM43289+CTGc5/4FsH2soaCgTI6AlAuwAaIku67ZnBI6h8bcj046Bz5FtmnQe6zNLRfm5sP6Du+DsrhVm7+t1sTAnE1a+PgGST+3TywRz9e7Fi/TE3xV5HjIP/AgCEyNQgQA7ABVI8CsjYB6BGLz8JDI5AhQrYNNj57C+K6i0uAiD627HffTbr7inxwU6kGfVmzfqnbWvoumUFHkJ8jDk7sj8xI8gMDEC5hBgB8AcKnyNEbgSgXN4iXYL0Ak/jyDTDIFuVFyQaxp0c1LO62ZDRcVbPn8U4g9vrfio12s2Vky5HdoiX4e8HpmJEWAEakCAHYAawOFbjIAZBHLw2jfItH2QcgnQE6YuOwcKstJg65cUt6gf0Ql9J9f/pp8BALS+/xgyOWb0SjkemBgBRsACBNgBsAAkLsIImEGA1pNXI9MaMw0+zyNHIduUYjGVrl4DMGX22/rVEzZt78XKMvH1B+Q+yF2Q6cmf9/EjCEyMgDUIsANgDVpclhEwjwBtIfwAmWYFeiJ/gnwB2Sa0fcZzuqTV3TPnLaDIfxsRzbIsRp6EHIl8H/IOZCZGgBEQRIAdAEHgWIwRqAaBPXj9aWSaFRiB/DWypgv1+ZkpcGTJdKzGdkTLD8dXz9a6QkrStAz5fuT6yOOQf0c2xI4MtIOJEbBrBNgBsOvuY+MNjEAJ2rYW+VFkcgb6ItMugkPIyunw4m+htMR2KQuiVvwAxfkUDqGcUlEjBRVMRg5Hvhb5e+QUZCZGgBFQiAA7AArBZFWMQDUI0Na07ci0i6ATMjkE9FT7JzJFr0tTbuoFOLt7pbQeSxTQUb5H0OFQRBRLsQv5LWRykmjQp8GfnABa62diBBgBjRBgB0AjYFktI1ADAnF4j55qb0KmAe8hZIojkKKYrYuk5C0VpvwDCrYf0sA/E5lSL1+F/DoyOUk0c8LECDACNkCAHQAbgMxVMAI1IEDr2dORuyFT/IAwxe3BGYAyGle1pbO7sB45KkBxcn7uQT4tp4qlGQFGQBQBdgBEkWM5RkAtAhQoOBr5jKjavPQkyIyPFhW3WC4xaqfFZaspeC9ep6N4mRgBRkBHBNgB0BF8rpoRqIJAMn5+vMo1qz6mnKa8ONpSyun9MhX8jcJzZRSwLCPACKhBgB0ANTiyFkZAFQJLUFGUqLIsjWcAKPlPYU6GqHkk96GMMMsyAoyAOgTYAVCHJWtiBFQgQIv4wovsoSVJUM/fFVxUWGJGR15avJmrFl8iz+Efi0tzQUaAEdAUAXdNtbNyRoAREEHglIgQybgV58KgRm6QX+wKsZllcD6LdiCqo+ICqRw8FN/AUf7quoM1MQJSCPAMgBR8LMwIaIKA9AO8t7sLtA5xhSFN3CHYW1qdqkYaxhBVDWI9jIA9I8AOgD33HtvuqAg0F22Yt7evqKhFcu5ePhaVq6ZQE7zuVs09vswIMAI2RoAdABsDztUxArUgQE/JtB1QiELC6wnJWSrkE0zn8AhTIEoOEJZmQUaAEVCKADsASuFkZYyANAJ04E0bUS2RjZqKilok5+VfB4gl6FkJWRZlBBgBhQiwA6AQTFbFCEgiEIbyn8voaNmeEgpqSyHNu8hUMBaFp8goYFlGgBFQgwA7AGpwZC2MgCwCDVABbf9rLKooJCwS6jVuJipuVq5HpBvUx22FlSm8LaXulyI6B2GilAYWZgQYAWkELv/LllbHChgBRsBKBChq7xHkvchSj+89B4+ysurai4f6uMBA3FY4sqk7NAzAnwuMUGjU8+raBWsu4Ym3f0f+GZkOA2JiBBgBHRDgPAA6gM5VOj0C9JRPo2gF+6tAZPA1dL6ONhSCjkD/hm6QXegGx4L6wvq6DSAn+ZxMZRTseMdFpuOAlyPTDMgOZM4VgCAwMQJaI8AzAFojzPoZAQD6O6Pod0qDewT5DPIM5BuRlQz+jZq3hl6DpJ/M0ZyayR+f3XvU84SJd9OkhTLqhZpeQ96KnIQ8D/k2ZKloQ5RnYgQYgRoQYAegBnD4FiMggQDNrtGIPB35PPJm5GeQ2yErp+vvfgJcXG335zz+1vvB29dPeTtQYTAyxQfMQU5AXoH8ADIFSDIxAoyAQgRs94uh0GhWxQgYGIHeaNtnyHHIFYNXhJb21gkNh1E32Daw3j8oGMbcfLeWzSLdFCtQ4UTRegMdlHQrMsVNMDECjIAkAuwASALI4owAIkDZcV5EPo68HfkJZE0HfdR/iR557WPw8rH9mHjHU69DaET9S3Zo/MYD9V+LPBeZZgZmIvdDZmIEGAFBBNgBEASOxZweAfrboafT+cixyO8it0K2KfUdcR0Mve4Wm9ZZUZl/YB14atpXFR9t+UpxE3chb0U+hPwkMi0dMDECjIAVCLADYAVYXJQRQARo8HkM+SgyTfFTIB89ndqcAoND4cmpX9q83soV9hk+FkZcf3vlS7Z+3wEr/BT5LPI3yJrEWKBeJkbA4RBgB8DhupQbpBECjVDvh8i0tv8Fcmtk3YgC8KZ9v8iWU/DVtvU/73wDnXsPqva+jW5QROJDyIeRyTEbhczECDACNSDADkAN4PAtRgARaIZMQX20vk9R/EHIupK7uwe8+uVv0K5bb13tqKjc08sbpn63EFp26FpxSc9Xyi9ASzOUU2AfMuUa4BMIEQQmRqAqAuwAVEWEPzMC5Qi0x5dfkU8gU1CfN7LuRE/+L38xF64aInxgoCZt8PUPhLd/XAytO/XQRL+gUjq04GfkA8i3IvPvHYLAxAhUIMB/EBVI8CsjUI4AnVlPe/dp0JiEbJinx/pNWsDnf26BAVdfj2YZj+gsgk//2AhjbrnHaMaRM0e7Bw4iU44BmiVgYgScHgF2AJz+K8AAXEQgEl8piIye+CnxjGEGfrQF+o8aD1/9tQ2atelIHw1LHp5e8PS70+HJaV9rlShIpu3kCMxDpq2aw2QUsSwj4AgIsAPgCL3IbZBBgKb2X0KmNf6HkHWJ6Md6zRKl+H1rxgJ449v5QMl37IXGYqbAH1cfhCFjb7ZphkIL8aHjDNciL0LWNZjTQnu5GCOgCQLsAGgCKyu1EwRuRjtpO987yAFGsrl99z7w4ic/w/crDwDt9bdHCqvXCF7+fC7MWPYvXH3TnbokK6oFt3F4n/IIfILM5w7UAhbfdjwEeC3M8fqUW1Q7As2wCE33U7S4IYjy+Lfp3BP6jRwH/UeOh8Yt2yqz65FxveHEoX+F9H399w5o1bG7kGxVoZysDNixfhn8s3ox7N60CuizgSgebaFgzz8MZBObwghoigAdWMLECDgLAvR9fxR5GjIl9NGVKH1vt75DgZLp9Bl2jSH29GsJiF9AEAwbN9nEpSUlcGTvdti+bilsW7MYYk9GaVm1JbopBoTiA5YiP4Ici8zECDg0AjwD4NDdy42rhABtCfsOuVelazZ/G9GwCfQcOBIH/GuhB75S0JzWZJQZgJraeSE2GravXWJyCA7s2ATFxUU1Fdf6Xi5W8BYyJX4q0boy1s8I6IUAOwB6Ic/12goBH6zoBeT/Q9YlwI+efIeMnWhKmduxZ39btftSPfbgAFwyFt9kZ6TBxmV/wh+zZsC5Y3sr37L1e6r8fuQ9tq6Y62MEbIEALwHYAmWuQy8EhmHFPyA3tbUBrm5upif9kXhML63rU7Y8JssQoN0O106+z8Trt+2Bv3+fBSfW/wYFWamWKVBXqhuq2ob8X2SaEShGZmIEHAYBdgAcpiu5IZUQoO/168j01O9a6brmbxs2awVXT7wLRky4DepGNtC8PkevYGjfHtC2UzfYeuYdOLV9ORxfPQvO7loJZWWltmo6zRq9ijwCeTLyGWQmRsAhEGAHwCG6kRtRCYGG+P4X5IGVrmn+liLlr7/rMRg+/lagp38mdQjU83eF4S18wd1zAjTtNx6yEmLg0F9fwrGVP0FxAS3X24T6Yi2UHfJB5N9sUiNXwghojIBNn440bgurZwTGIQR0AIxNBn/aukfBfJ/O3wS0XY6m+3nw1+ZLGOztAkMbu4O3uwsERDSFvg9+CJN+Oga97p4KviEUwG8TCsRafkWehexrkxq5EkZAQwTYAdAQXFZtMwQolP4z5L+QQ7WulSL3R1x/O3y/Yj9M/f4v6NCdHg6ZtEYgCHt5aBN38PEoj132DgyFLjc9A7f8eBQGP/0dBDW0WVK/KdjWXcjGzsusdYewfrtHgB0Au+9Cp29AS0TgH+QnkDXd1ULH8I67/SGYu+UUvPDRTKXJepy+Fy0EINATYDjOBPjhawW5eXhBq+G3wU3f7EFHYAb4hdEqkObUHmvYjnyn5jVxBYyARgiwA6ARsKzWJgiMwlp2IqtJVVeDyTTV//2qA/D4W19AcN2IGkryLa0RoMF/aCOPy5wAqtPF1Q0dgdvhlu8PQZ8HPgBPvyDNTcEKfkKejqzLFlOsl4kREEaAHQBh6FhQZwQewPopa1uwlna069YbPv59vWmqv0FTmmxgMgIC5AQMw+UAfzPDrqu7J3Qc/yjc8sMR0xKBm6fmWzDpu7gWOdwI2LANjIClCLADYClSXM4oCOBP/6WnLs12sTRq0QbenP4nfP7nFujUa4BR2s52VELAFwMChzT2AB98NUdeAcGmIMGbvt0LLYdOwikC8+XMyQpco8DTbci0NMDECNgFAuwA2EU3sZEXEaAT+/5G1mzdldb5b3noOZi+dI8pgQ8jb2wEaCZgcGM38HSrfnAPiGgCQ579Eca+txrqNGqrZYOao/KtyEO0rIR1MwKqEGAHQBWSrEdrBOpjBZuQr9aqIkrTOx2Prr3v+XdskqNfq3Y4m94gLxfo38ANXKv3AUyQRHboBzd8ucM0K0CBgxoRHSu8Evk2jfSzWkZAGQLsACiDkhVpiEAH1E3brrpqUYd/YB34zzvfmtb6VR7Dq4WtrNM8AuF+LtC7HiZgqsUJcMUZHto6OOGzrRDe9irzyuSv0jLVbORn5FWxBkZAOwTYAdAOW9asBgEa9Ncj0wyAcqLo/hkr9sI1k+7FJeJaRg/ltbNClQg0DnKFHhGWZWEMbtIexn24HgY8/iV4+FJ+H+VEXyY6TfC/yjWzQkZAEQLsACgCktVogkBP1ErR1WGqtfv6B8LLn881RfeHRdpk37jqJrA+Mwi0DHaFtqEW/qyhw9d29D2mZYHwtr3NaFNyiU6inKZEEythBBQjYOFfiuJaWR0jUDsCNPjTWmpI7UWtK0F5+79ZvBOP6L3ZOkEubRcIdA53gwaBlv+0UZDg2PdXQ/dbX8ZZIMvlrADjZSxLswE8xWQFaFxUewQ0+bZrbzbX4OAI0L47evJXOvjTFD8d2PP5n5uhfpMWDg7h/5rn4+f/vw9WvvML0DyZjpUW1V6cRtmrIl3N5gioTtrVzR263/YyjJm2GHyCNUn0RPEAXyPzb251ncDXbY4AfxltDjlXWAsCg/H+cmSlC7M0kL3y5a/wyGufgLsHxWg5D0U2bCrUWNoSGRpeT0hWbyHaFjigkTu4W/kLV7/rUFwS2AkNuo/QogkPoVLKGmilVVqYwjoZAQDLImYYKUbANgiMwmqWIPuprI4O6/ngl1XQvlsflWrtRldRYQFsXr7Aanu79h0Ko2++22o5owjQyYF+eHBQXFaZVSZ5ePtByyE3Y2phV4g/RNv6rZOvpTJKW90EebFqxbXUy7cZgSsQYAfgCkj4gk4I0OisfPCndf43vp0PgXU0PyRQJ9hqr7Zhs1aw/u/fICsjrfbClUrQuQf2nv64Dh4jXFgCkJpv3SBOsQD1Og2CkGYdIXbHMigtKaqEjPRb2tlCga3LpDWxAkZAAgF2ACTAY1FlCHRCTauRlS0403r/lCdfhcfe+AxoKtuZydXNDRq3aAvrFv8GZWWWDYRDr5sEkzAjoiNQhL8rJOWWQa7AGF6nURtofNUYiN21AopyM1XC0QuVUbjCBpVKWRcjYA0C7ABYgxaX1QKBVqh0PbKyrX6eXt54XO9PMOGOR3lv/8Ueo6DHiAaNYeeGFVBaio/ENRDlRnjxk58dxnGiUTYSEwXFZJRBiWX+z2XoUFBg8/7Xw/n96yEvPfGye5IfhqA8TcvskNTD4oyAEALsAAjBxkKKEKB5eYr2b6JIHwQGh8K07xdB72HXqFLpMHpatO8CvYeOgbjoE5AQd+aKdtExx5QG+aGXP3C4QEkPDAr0x9jPs5kCHgAi5ekXiAcKTYa0M4ch49yJK7CTuDAaZY8jH5LQwaKMgBAC5BwzMQJ6IOCDldLg31dV5ZTG9+0fFkNko6aqVDqsngux0XBo9xZITUoAbx9faNamI9BZCLRc4Mi07VwJxGaWCjexDGdPts14Do4s/lZYhxnBPLw2HJlOE2RiBGyGADsANoOaK6qEAH3v5iDfWuma1Fsa/D+YuxpCwiKl9LCwYyNQUFwGK6NLIA9fZWjPnGmw99d3ZFRUlU3BC+QMK51eqFoJf2YEKiPg2O5+5ZbyeyMhQL+cj6gyqGWHrrjNbzUEh4arUsl6HBQBdzwyMAAPAowVXAqogKV+50GmEL4LBzdXXJJ99UUFI5HJMS6QVcbyjIAlCLADYAlKXEYlAjeiss+Rlcw+0eD/3qwVEBRcV6WNrMuBEQjwdIEc3BGQXiA3C0DbBN29fODcvnWq0KIvcTfkX5HljFNlEetxaATYAXDo7jVc42j/MyVAwXAseaKc/u/PXmEK/JPXxhqcCYEI3BVwBncFFImHA5jgimjfFzx8/OHcXgpnUUItUYs7sjKvQolVrMQhEWAHwCG71ZCNoqeb9chKtvtRdr/3cPD3D6xjyMayUcZGwA3zRKhYCqBWRrTrg7sEgiBu7xpVjaazMI5cZFU6WQ8jcAUC7ABcAQlf0AAByn3+B3JPFbpbd+oB781ZAXSkLxMjIIoALQWkYvx9dpH8bHt426uAUggrmgmg5bGrkf9EThVtH8sxArUhwA5AbQjxfRUIvIhK6CAUaarXuBlG+6/C1L5KDwqUtosV2CcCIT6ucCq9VMmCO80EFGK2wMSonSrAwFBFGIL8M7JADkOUYmIEakGAHYBaAOLb0ghguDT8hCx9AhoF+r2PW/0iGjSRNooVMAKEgBf+AhZjHEBynvwsAOlriKcIZl6IhtSYQ/RRluhcYtraQnEzTIyAcgTYAVAOKSushEAwvqeFUemFem9fP/jvrOXQol3nSur5LSMgj0AozgJEY0AgOQLShLEFjXqNhoTD/0B2Yqy0OlTQA/ko8mEVylgHI1AZAemnssrK+D0jUAWBr/FzwyrXrP5I2ele/PhnaNuFzk9hYgTUIuCBv4KdwtU9C7l5eMGo1/7AkwTpjCslNB21NFaiiZUwApUQYAegEhj8VikCd6C2SbIa6VS/p97+BvqPGi+riuUZgWoRaB7oAqE+SlJTmOrw8A2Eq99cCP5hjaqt04obNIP2IzL/XlsBGhetHQF1bm/tdXEJ50GgKTb1b2QKZJKim+59CiY9/LyUDhZmBGpFAMf+QC88MRADAlWRp28ARHYcACfW/QJlJcWyapujgnTk7bKKWJ4RqECAHYAKJPhVJQK/o7L2sgrbd+8DL346C1xd+WsqiyXL146ArwduC8wHyCpUExBINfqG1AOfOuEQu3NZ7QbUXmIwFpmHzFsDa8eKS1iAAP+yWgASF7EKgXuw9NNWSZgpTEfTfjBnFSf6MYMNX9IOgTreLnBS4SwAWVq3ZTfITo6DlFP7ZQ33QAUUBUtbA5kYAWkE2AGQhpAVVEKgHr5fhExH/QqTm5s7TP3+L9MRtcJKWJAREEDA290FMnAWIFPhLACZQdsD43avhNy0eAGrLhNpip8SkHdfdpU/MAICCHBQiQBoLFItAl/gHdr6J0X3PDcNOvceJKWDhRkBUQQ6hrmqOamqkgFunt4w7KU5ppTBlS6Lvn0PBaV314hWznKOgwA7AI7Tl3q3ZBQacKOsEX1HXAcT75deQZA1g+WdGIEgDAas56/+pzGwXnMY8iwG8+POFkkKQPmPJHWwOCMAvATAXwIVCHijkiXIUvl5w+o1wgN+loOnF6ljYgT0Q4DOCTitOBaAWhPUoBUUZqdD4rFdso3rgAq2Ip+WVcTyzouAejfXebF05pbTPj06xlSYaL//f975BvwCgoR1sCAjoAqBEMwJEOYr/aRu1pyed75pcgTM3rTuIiXakt5qa12VXNqREOAZAEfqTX3a0hir/Q2ZIpSFacwt9wDt+WeyDQLnY0/DttWLYfemVXDqyH7Iz82BsPoNccslPxNU9ICXO0BsprotgRV6Xd09ILR5FzixZg5ektIfigqykGkmgIkRsBoBbVxcq81gATtGYDbafruM/XUjG8B3K/bxlj8ZEC2UPXZgN0x/+zk4uGvLFRJ1QsPh1kdehPF3PAKUftnZiYbm5aeKMC+ANkhs/+4FOPQXxc1KETkArZBpZwATI2AVAvxXbhVcXLgKAt3wM/2CCTuSNPX/yhe/8Ja/KsBq8XHV/FnwxkM3QfzZaLPq8/NyYNemlXD84B4YgKmX3T2kJnXM1mFPF+lLXYpf7fgcqaf0aptcr9NAiNn2N+RnJFdbxoIbtARA226VZBqyoD4u4kAI8HyfA3WmDk35AOuU+g5dO/k+6DX4ah1Md64qaar/o5cegOKi2h9nd25YDh++cL9zAVRNa5sFuQCmBtCEaGvgoCe/ARf5TJcPooEUFMjECFiFAM8AWAUXF66EwDX4/pVKn61+G16/Mbwx/U/w8OQ4JqvBs0KABv3/u2csZKVbnkE25vhh0+mLDZrS7LLzkpurC+QUAaTlazML4Fe3ARTlZkJi1A4ZkMkJj0SmNMFMjIDFCEg9vVlcCxd0NATomeh12Ubd/+K74OtHW5qZtERg84qFcCHW/LR/TfXO//7Tmm47zb0WdbT9mex+28t4ZgCN31J0PUrzedlSEDqfsLbfbOfD01laPAEbepVMY+mgn8HXTpRRwbL/3955wFlVXft/Mb33ShvKDEMfisAQRXoExIZYiCVqTPnnHzXmn5iXponJey8x+Sd5ecknVaMvsZGiBGPBAlhAQZSmMPQ+wAxtmF7fWpeSYZhy79rnnnvOub/NZzP3nnPW2mt/9733rLPL2n4SkO5/Tdq05i1qqKvViHpKRpYEpnFwoGCl6PhkuuQ2Y3/aEqc8WHWEXmcSgAPgzHZxslXymTH6terFS82++ODPOCBa8H5UnQzQbtvKu5j015Mdzc1NVHH4YE+XhcX5ganB/aksmn0bZRWNM2V5JSsoNVUC+fAhENxPdfhwDKeaLuDKlphUePZ1t1Lx6EtMVEA2AAKyxl+b6mpklRlSQVov/VIXP/D16hVBpZ+VEP/G6UFjDVAQNgTgAIRNU1tW0a+baIpPSKK7vvp9ExWQBQHbCcRG9qLcIOwP0L4ieSMupYGXiX9tlOaytHFXgpEFEHYNATgArmkqRxg6m60wenRf9MWvU2Zub0dUBkaAQCAECpKD/3NZevcPKSo2IRCzOrv2q50dxDEQ6Egg+J/ojiXivZsJPGBifHZeX1pw130mKiALAiEj0CelF0UG+RczMbsvjbj6i6Z1vJEVDDJVAnnvEwjyx9n7AMOohhL1b5ZJfW/8/FcpNk6CliGBgPsIRPOvZW5C8H8yR113L0XFJZoAkvgu95sogGx4EAj+pzk8OIZDLe81qWR6Vi7Jhj9IIOBmAn1sGAaIS82iYXM/Y4rp06wAW2uaUvS4PBwAjzewRdXLYj03m+i64bNfwdO/CUDIOoJAH4lbZcPq1dHX309RMUa9ZWLp7Y6ABiMcSwAOgGObxlGGSWD4OK1FKemZdOWnRAUSCLibgKwGyOLAQMFO8em5NIRjAxime1gev/GGEL0sjg+Hl1vXmrrJZ+QLJqoW3HkvQv6aAISsowj0DvJywHOVHb3wKxQRFX3ureZvEQsZzdvRFAoZ9xCAA+CetgqVpbO54P7awhOTU337y2vlIQcCTiOQmxj8HgCpc1JOfyqc8SnT6htPJjA1APLOJQAHwLlt4xTL7jIx5Opbv0BJKWkmKiALAo4ikM77AsTwUIAdqYR7ASRKoEG6hmVlDg8SCFxEwOiTdZE2HPAagUyukPyAqJLE/MfYvwodhBxMQLawyEmwxwFI7VNEvcdMN6Ehe23fYqIAst4lAAfAu21rRc2k/1F+QFRpwuVXUG6fApUshEDAyQTybBoGEAZDzZcEYhjAyR+mENoGByCE8F1Q9K0mNs7HzH8TfJB1MIEsGx2AgtL5lJCRb0JjFAtLRgKBCwjAAbgAB960IzCIX09o9z6glxL2d+J02ZcECQS8RyAlxr55ABGRUVYsCbzJe62AGpkSgANgStC78hL4Rz3QOeemOymSf7iQQMCLBOSLYUc8gHPsZBigV4RE+FWnRSyp/j6rS4WgownAAXB084TUOPUTQ0RkJM298c6QGo/CQSDYBDJtmggo9UjK7kd9xs4wqZJRj55JwZB1LgE4AM5tm1BaJgFERmsNmDh1DmXn99OKQw4EXEEgM87eB2oLJgMucAVYGGkbATgAtqF2VUHqpX9Sy5nXGgcvcRUsGBueBDI4JLAsCbQr9Z8wl2KTjGJqGH2v7aonyrGPABwA+1i7qaSrtcZGx8TSxGlztOKQAwHXEJDtgVOi7fMAJCxwv4nzTPgMZeEhJgog6y0CcAC81Z5W1EaC/0zWKho/ZTYlJKVoxSEHAq4ikGm0YV/gVR34CeOHeLVzH7i1kHA6ATgATm8h++2TtXvq6ftTrrjOfotRIgiEiEBGvL0/oX3Gz6Lo+CST2s43EYastwjY++n1Fjuv1uaT2opFcRfl5Fn4fdHyg5z7CGTYPBEwKiae+o5Xf0UFsPTuGXkQ7mslWNwVATgAXZEJ3+MztFUvmTyNktMytOKQCxKB2Dh9P3VsXEKQrPKG2lSeCBhp86/owEuvNYEXw8KXmyiArHcI2PzR9Q44j9ZkBNerj7ZuU+ZglZGWXTDlsvP7qtTLZk5Zeb1VsuEiJD+gsjugnanfhDkkPQEGaZaBLEQ9RAAOgIca04KqqH8YevF6KHT/W9ACQVAx9tKZKq3DxkzEhE4/yMlyQDuTzAHoPWaaSZGzTYQh6x0CcAC805ZW1ETdNVhQOIwysvOssAE6LCYwdd71lJoe+JbwV93yeYst8aa6TJsdAKGYP3qqCUzp6Qv8A2FSImQdSQAOgCObJWRGqZf/jZ6k9h1CVtlwKViWZX7umz8KqLrSnjOvQUAnf6DZvRJAbMofNcUf07q6RrosSrs6iePhQwAOQPi0dU81HcwX5Pd0UVfn4QB0RcYZxz95/e10233f8cuYwcNL6MFfPcObz+DnwR9gidFEsZH2DgNkDhpNMYmp/pjX1TWXdnUCx8OHAL7h4dPWPdX0Ez1d0N35kZfg96Q7Pk44d/t9D9JDv15MuX0LOjUnKjqGrrvjS/TzxSspNSO702tw8GICcuu3ex6A7AyYN8LoK4sv7MVNGXZH1AFfwo6U9yus7hLsN7iYMnMxW9wNH5HLOFBT6cz5tGH1Ctq45i06frSc4pOSaeCQkXz8SkrPynVDNRxnYwZPyi+vttes/FGX0741L2kLncCC3HdBTVoFkHM/ATgA7m9Dq2owSauoBOP/WnQhkZOATRKyWTKSNQRCMhHQbB5AHNdcdvxcZw0BaHEjATgAbmw1622WH4NRWrV2jv9XHj5IB/fs8OWK8v1UX1dLdTWnqba6mhrqa6m+tuZ8NZqbm/hcNUVGRp5fziabFcXGnwluE8d/o2NiKIYD5aSkZVJKOmcOZJSWme17n5zOr7krXGSQQKA7AnZHBBRbMgeX+OYBNNac6s607s5N5JNwALoj5PFzcAA83sB+Vm8MXycRwlRp5ITLVHL+CLW1tdFH61bRO688T2+98hwdObDXHzHLrpH4Blm5fSiv/0DK73cm5/UbQL0LCmnAkOHnHQvLCoQiVxFobWmhWnZAk1LSKIm/QdWN9pkv8wByh02i/e8v0xYqDsCvtcKQcz8BOADub0MraqAe/5ex/+w8XaS57gyXG//q15bSEz//Hu3asrG7S4N6TuyoOHzAlzfxmHn7JM5B74LBVDhiLOcxVDh8DBWNGqdac99eL147j4Dc5Ldv+oC2blhL2za+T/t2bqVDe3dSY0P9eWMT07MpuXcRZfAM/d4l06jPmOm8cU/y+fPBeJFdPMHUAQiGWdDpEgL2rl1xCZQwNPNJrvOnNPWWSWUys9zKtGf7x/STr32GyviH1m1JnIKCouFUUjqVZGhE5kdgRr3bWpGo6sQxniT5Jq3nyZIb3l1Je3dsobbW1oAqEhWbQAN4+96R191DWYOlk836JE//rzyk3htAKpTOucp6y6DRDQTgALihlYJv43YuolBTzGce+He6+QsPaEQ7lXnp2cfoVw/fTw08tu+FJA7BwOKRNGn6PA6VfBUNLZmA9fUObdjdZZvpnWVLaNWr/6AdH68P+IbfXbX6T5pHpXf/iFJ6S7gN61LD6RP0p0XcA8c9VcokcaLfUMpCzOUE4AC4vAEtMD+DdVRyVn0WfvzkMhozebqxGdLV/t8P3kNLn/ytsS4nK5BldqUz5tGlV1zrm4UvM/KRQkNAxu8/+mC174a/im/8h/btCqohkdGxdMnt36VR193L3zbV161T+xbfPZKqytW2f4OV/rBTxTjoeQLWfQo9j8qzFZzLNXtRUzuJFPf8+grjiXDhcvPvyFji80+dfwPNuGYRDR9byvcEfB07MrL6vXzWNq99m15f8hS9/coSOnW8wuoietQnvQEzHniCouISe7zWnwuWP3IH7VypHoZ7jstY4E85uMZ7BPCL4702DbRGD7HAdwMVkusLiobRH14xn6D36CPfomd+84jGBM/IyMqCGVcv8mXhimQtgf07y+i155+k159/io4c3GutcoW27CGX0NwfLDUN5+srefPzv6R3f68ehitnJb0VVYCIBwjAAfBAIxpW4QWWv1Kj44qFn6avPvIHjeh5mXVvv0bfuONKS8dbzyt36QuJxS8b8Uy76sagrLBwKZaAzT5ReYRWLF3su/Fv2+S85e65w0p9ToBpT8CRLe/S0q/OCJhPOwFZxnOw3Xu8DBMCcADCpKG7qeYRPpfTzfkuT937/V+SyZaxp05U0ufnjadjRw51WUY4n5AhFllFMIOdgSlzrvOtNQ9nHv7UXSaPvvPqEn7Sf5rWvfUqtbQ0+yMWsmsGT7uJpn/tj0bltzTW0xM35FIrB75SJhkCkKEApDAjgDgAYdbgHao7kN+rbv6iR2a0m6Qnf/kfuPl3A1CWnckyNMkyQXLi9LncM7DIt6IgJlaCNyIJAZnMt/7dFb7u/bdffs4XmMctZHaueJb6cMyAIZ/8tNrkyJg4yigYQZU712t1yBcZDoCWnovl0APg4sazwPSbWcfTGj1yA1qy8RjJDnKadLziMN0+dQiH763TiIe1TGJyqq9HQFYSjP3EDIrlUMbhliTk8/tvLeNgUS/Qe2+8SNKb5NYUm5xOC3+znuLTstVVeOdX99KWF9XDcbIMUJYDIoUZAfQAhFmDd6iu+hFeIt9pb/5iw1//8DPc/Ds0hr9va06fopf/8rgvy74G4y+b5dvh75LLZ3t6zoAMFb3LN3tZp79+9fILovD5y86J18la/g2LH6HSz/1YbV520XjaQmoHQH4HZGv4VrUBEHQlATgArmw2y4yeqNU0dIxalGOWtNHypc9qi4ZcOwIy5i03RMmSJDSxRCGUuQMSiTA7v1+7q931UkIwy5I92bZYwjDv27HV99lxVy38s3brS49RyY1f414A3YhcdrH++8gWSrzioZw/9s9aXOUVAnAAvNKSgdcjkkXGBi52RqJ49CVaUdrx0XqSXf2QrCcg8eklS0RFSRKG2LdPAffYDB5W4sv5vLGRk3Y4bGpsoAO7t3PeRjs/3kDbN3/A+UOSWfzhkpob62jHG0/RqAVfVlU5rX8xRSekUFNtlUqehcSDgAOgpedSOTgALm04C8wexTrUkUiGluifON5745/G5vfOjqI5kxNpSP8Yio3uRQlxEbztL1FKovg1fONLiqAInuEix6Mie1FVTYvveAt3clbVnOnpbG5u870+dqqFJB+vOvNXXlecaKF9R5qooVEdYtVXXqj/k0A3Mhte8rkkAYdkEyfZ3TDv7A6HWfl9fVshy3bIyWe3RZbtkU0iFTY3NZIMV9RUn/bF1j/JN/TKw4foWEU5VZbLBksHfTf9o4f2YxkoN872N55WOwC9ekVQVuFYKt+48lwzB/pXhgEeD1QI17ubABwAd7efifWTtMLJfJPI7z9IK+7r0lULs+Bnr02jn92fQ4nxMmwZvCR7vxysaKLdh87kXQebaMvuBlq/rYF2HGg0CL8ePJv90SxDMNIDI3kTd7F3lxKSUiiCPatonuwZl5DguzQ2Np6iO6xCqKk6SW38T1JDXZ3vxh8uEzwTY4lqGnxVN/rv+J7NVHfiCMWn56r05HBwIQMHQP17oDIWQo4gAAfAEc0QEiPUEwB9G9oow9bK0jaToCzy1P+bf8sjXiIf9CRl9MuN9uXLOwyWnK5tpQ3sCHy4rZ7e21xHy9fV0qEKZ6851wCrrVZ3KWuKc7xM3wyiyYOJJklmH3jcAO5l4oUw+44R/fdrRD97hUh6mVSJHbPyTW/RoMsXqsSzhoxXyZ0VGs1/ZTkJluWYUHSZLBwAlzWYheaq+/CLDdb/79+1zfd0qK3HA7dn2nLz78m+5IQIumxMvC/fc6PsqMpduPsbaeUHtfTG2lp65d0a35BCT3pw3tkEUviWOGs4r5HjPGsE0ZC8zu3tn0n045vYISjgfbV/0/k1/hw9WrZW7QDkFKt9ejFNdqWSPYtXyxuk8CAAByA82rljLWXsf1jHg/6+NwkAtHXDGn+Luei6JL7pXj72TDf0RScdcKCoXwxJvvuaNGpuaaO319fR0req6R+cd7BzgOQOAlk8J/5qvhUu4HmuctOPDeBXclEp0ZN8C/3nBl1dK7a9rxNkqcSsPpSQkU+1x8u1OuShAA6Alp4L5QL4aLuwdjC5KwLyqKBue5MVAGUb1nZlU4/Hxw+No0gbuv57NMSPC2Ti4bTxCb78/7+cQ+u21tNTL1fRM69WeXKowA8kjr6kD3fiXMc96JKnFpPR5+xmHk3XOgDHdm7gyIbNPO9C9/XMLr6E9q5eqmVt1IWgLRRyoSOg+5SFzl6UbA0Bdfe/7FqXlpmjtmKrgQNQOlKGKN2ZxHmR/ON7c2jVxjr6y+tV9NQrVVR58szqBHfWyt1Wx/PY/fwSotsuJZrHI+BWOZeTC/Vcmhtq6cSejyhzMBumSBIQyMABwERABXM3i8ABcHPr6W1Xe/omy/8aG+pp19ZNaqsvGeb++PcysfDc3IEf3ZNDL/DwwJPcM/DS6mrXLzlUN6yNglG8SnQ2d+vf+gl+2h/Hs950kay7tXhQNlFmEtGx6m4v6/KkDAOoHQDuATBIPLWRMjnzlEakcCAAByAcWvniOqp7AEwmAO7aspFkbbg2TRzhfgegfd3jYnrRwpnJvnzidAv97Y3TPmfgzQ9rSZYgIllHYMJAolsmE93Ez7h5qdbp7UyTLJCR8l5W+rpH2QEYOvcznanu8Vh20SUkMQHa2lQfILac5OHg5R4LwgWeIAAHwBPNGFAlZB5z/4Ak2l1sMgFwy4fvtdMU2Mv8rCjqnycTlb2Z0pMjfZMHZQLhQV5O+NfXT/uGCd7ZUOfNCttQq4L8aLp5RgLdOeoUFcun3sYkywS1DkAFrwTQppjEFErtO4RO7t+qVSEPB3AAtPRcJgcHwGUNZoG56nE+CQhTOFxWCulS2aZ1OkGWmjDcW0//3YHow1EO77s53Zc/5sBDMnnw6WVVJIGIkLonMLB3NF0zNZkWfTKFfD1Gp05xNCfONifpAdCmk/vLqKmumqLjeRxBkbI5IJCBA6AeHlSYCpEQE4ADEOIGCEHx6i/4wOKRHA0uUW3y1vX6HoBJI9w7AVANjAWHD4ylH/yfbF8WB0CWFb7wdjWt4MBDstQw3JNM3BszJI7mT0miqzjLRMsLUnXtBW/tejORgwRpU1trC1Xu+IDyR12uUpHNAYG2v/5nlSwLqR8QtAVCLnQE4ACEjn2oSlaP/5t0/1efOuHbpEZb6XDqAeiK0aA+0ed7Bo7yXgXLONiQOAIrec5AOMUZkOGgWRMT6cpLE+mK0kRK4+GTLlO1ciZelwr9O5HNsQQG8mTA3RX+Xd/xqoqy9w0cAKOJgGw1DeC8hzOSxwnAAfB4A3eonkzyUf86FBtsAFS28X31Vq6+SVVhNATQoc06fZuTHkm3zk3xZbngwNFmWv5+jW+J4Qdl9bRpRwPVNbi/hyA6qhf3gsRwd/6ZqIuXlSSQOEJ+Jbn5t4RumaX0AqgdAIOAQJmDRlNkTBy1NNb7hamTi6QXYE8nx3HIYwTgAHisQXuozhA+zyFPdMmkB8Bk/b/s+NftU56uOp6S6psTRbfNS/VlqZgMD5TtbaQPy2TzonrauqeR5xA0+jY2qnfgDocSOKkgP4oK+8b4dngcXRRLY4vjaNTgWIrh3R5V6dgJlZhVQhN5HsCzylEvWQmgTRFR0ZQ5cBRJWGFlkmHCZ5WyEHMRATgALmosC0xVj+/J2H//wqFqE0wcAHn6QwqMgNxQRwyK9WXpKTiXeL8ZOlTZ7HMGZE7B3vIm31bI57ZElr8SnEiybHhkmsRxS0mMOJ/zMqNIJjn6/rLTIt35MnFvAM/Yl6d9y1IdP/3W1FimTqPIZB5ATcUBDul7mEP75mmKpmzeF8DAAVAPE6qMhVDICMABCBn6kBQsnr0qDRk1niKV4UmlQJMQwBPR/a9qs86EZDhFbsCSp/ixoKOqppV3t2vzxSU4VX3GIWhoaqPa+gudg7SkSF5/fqZEiW8gWzWnJvEMvVClI0dCVfL5cscN4HjbPD2hWTkKUbF9HRVMuvK8vkBeyERAgyTCcm/w3vaWBlC8KAoHwIut2nWd1J69Sff/kQN76ESl/gd5kotDAHfdFO44I0/v51JmajeT7c5d5IS/J04S1daF3BLZJnhkH6L1+3SmyERAvQOgnuojxsqOWyM4b5A3SN4l8K9vt3friJqdISBBT3UBxlnQJAKgSfd/LD9Nji6MRRuCgH8EGjnS5JGj/l1rw1UmwwAmOwOm9i6k2OQMkxqqhwtNCoWsvQTgANjLO5SlSYev+k5q0gNg4gDIGm9xApBAoEcCMuN//wFyUhxlMwdgrTakL8l4TFYRb3agT+rhQn2RkLSbABwAu4mHrjy1Ry+7/+X07q+2HOP/anQQ9JeAbJ6wj2/+Dfq9JvwtKpDrTByAxpoqOnVweyDFXXBtDk8ENEjq4UKDMiFqMwE4ADYDD2Fx6l+DYWPVvgPvbd5C2z/6UF1trABQowsfwWaeq7ZnH1Fd6Mf9O0IfwXMAkjsEJ+x4TXfvZR6ANsnWwAZJ5gDoYhEbFApRewnAAbCXdyhLU3v0xaP1E4r2bPuI6mtr1PX22g6AahAQ7JyA3PR37yWqVwe96VyvRUcjePRKVgNok6wE0CZZCmiQZMan0RiCQdkQtYkAHACbQIe4GNkAtUhrQ6jG/2UNeVG/IGzYrgUBOecQkIAGFZV88+cn/yZnb5IkAYG0yaQHID4tm5Jy9EN3bLO+609bYcjZSgAOgK24Q1aYPP2r2roXTyYy6QHYumGNutKy/v/c2nK1Egh6i4Dc+GWHvx27zjgA5PxwxxMG6Zvg2K6N1NLUoFYgOwMaJKMuBINyIWoTAdVNwSbbUIx1BNSefN+BRZSUqo4ebBYAaITB4Kl17KDJCQSki/9oBdH2nby9b7njn/rbI5tk4AC0NjeSOAHalFNs5ACohw219kLOXgIIBGQv71CVpvbkTTYAaqirpb3bt6jrPLGIhyEdOrarrhQEuycgD/SynE+ydO3X89OvjPM7vJu/u0r1zyTKTyMq5/hEmiTxALQz+g17AArY3nzO7HEheZEAHAAvturFddI7AAYTALdtWse/4/poopfEc0AX7ulFAgG3E5jA8wD+oVwMU7FNPxFQYgFEcAjvVv33ULoQlrqdP+zvnACGADrn4qWjMgtIvHhVCtUEwIKzT00qoyEEAg4jIA6ANplEBIyKTXEyC88AABWpSURBVKC0/vpNvNhmDANoG84FcnAAXNBIhiaqv8BR0TE0eLg6ejCZRAA0CaBiyAviIGA5AZPPswQDaqhWjh9wTQyHAdS/H5ZDhELLCcABsByp4xSqv8CFfPOPjlFHDzaaAGgyc9pxLQCDwp6AOADqFS288qGS5wFoU/YQ9QigFCm/HxzNAMmLBOAAeLFVL6yT2gEw2QDo5LGjdOTg3gstCeCdyczpAIrBpSBgC4E03l+vKFdf1FEDB8BwJQBPX9THENHXGJJ2EIADYAfl0JUh7auO5mW0/n+9fv1/JFs9TuYfI4GAhwiYOLWVBhMB0wuGU1RcoglJ9UOESaGQDT4BOADBZxzKEiSed7LWgKEl+u992UZ9l6XET09CCABts0HOoQRMhrWOlukd6l4RkZQ1eIwJFf0PgUmpkA06ATgAQUcc0gLUX9zE5FSSIEDatMWgB8BkwpTWXsiBQLAJmIQErjtZQdUV+9UmZiMgkJqdlwXhAHi5dQ2W8Mjyv14Ruo9HG09a2r75AzVZkyVT6kIhCAJBJjCGh7ViDSKvVJStVVtouBJAug/0s4HVVkMw2AR0v/DBtgr6rSKg7gEwmQB4cM8OqjpxTF2HSYPVohAEAccSkJv/6H5680wCAhk6AHLzH623HJJOJQAHwKktY24XzzumkVo1JhMAyww2AErgzf9G9NZaDTkQcDYBk+Etk4BAybkFFJ+WYwJH/TBhUihkg0sADkBw+YZSu8z+V3c4mjgA2zcrY56ywbJ3epTsRI4EAh4kYOIAVO7g75XshqhM2UPGKyV9YnAATOg5VFZ9g3BofWDWvwiodwDMzu9Hmbn6x/B9O7f+y4oAX+08SjT7xwEK4XIQ6ISARK+R9fdOSseq9dY01VVTzbFDlJjFy2QUSRyAfWteUkj6ROAAaMk5WA4OgIMbx9A0dfivYWPMvuvHKw6rTZcd07S7pqkLhSAIuIRA/alKvQNQbPS9LmZEEhSIv6FIXiGAIQCvtOTF9VB/24cY7AAoZrQ063cAvLgaOAICIHCOQEtz47mXAf/NLuIhAHU8Yl84YNkZEMlDBOAAeKgx21Ulm1+r9x8z2QFQbEhKkQcFJBAAAasJxCanq1WKbGq+0RIb9UOF2mgIBpUAHICg4g2ZcvUXVdb+F40ca2S4SQAho4IhDAIeJhARFUPJObK7tz4hIJCenRcl4QB4sVUNAgAVFA6jhKQUIyrDxpYayUMYBEDgYgJZhWNInACTlCXDAPqknlisLxKSwSQAByCYdEOnW/0tN1n+d666pTPmUUQk1vKd44G/IGAFgYLS+cZqcorVc4Ol7DzOuiUIxpZDQTAIwAEIBtXQ61QHABo6xtzJz8jJp8mzrgo9BVgAAh4hIE/+Q2bdZlybzEGjTXsRhhsbAQWOIQAHwDFNYZkhsu+neqDQdALguVrc+qVvqfcSOKcDf0EABM4QGDbvbopPzzXGERkTRxkD1c8HUv4wYyOgwDEE4AA4piksM2QIa5IYKAGnmNg4GlAsOwibp8IRY+ja279orggaQCDMCUjgn3G3fNsyCtlFEiRUnSQeAJJHCMAB8EhDtqtGTrvXAb2U2ftRUdEByXR38d1f/0+yqkehu3JwDgS8SiAyOpamP/A4xSZZt7Q2ta/RPVyWGCN5hAAcAI80ZLtqpLZ7HdDL3gWFAV3f08XSo/CDR5fQoKGjeroU50EABDoQ8N38v/4E5Y24tMMZs7epvY2+59Z5ImbVgLQFBOAAWADRYSrUX9CE5GTLq5KakU0/fXY5lc40n8FsuXFQCAIOJZCQkUdzvv8PGjD5asstjE4w+p6rHzAsrwgUGhOAA2CM0HEKWrUWRUebrTHuqtzE5FR6+Hd/p6898qjRJkNd6cdxEPAKgV4RkTR0zp204FdrKX/UlKBUS3oWDJL698WgTIgGiQA2AwoS2BCqrdeWXXO6Sivao1wvjkH+yYW30/Srb6IVLyz25Q3vrqSG+roeZXEBCHidQMaAEdR/0nwqvuIOSs4tCGp1G6tPmOjHF9aEnsNk4QA4rEEsMEf9BT12tNyC4rtXER0TS7MX3ObLLS3NdGjvLjrO5cprJBCwmkB1UxvtON5KJxvarFZtib7Y5AyOzz+IohPMom8GYkztiSOBXN7x2tqOB/DevQTgALi37bqyXH0X3711E7W1tfGGYapVhF3Z0+XxyMgo6jdoiC93eRFOgICCQHUT0eajLVR+upUSefm8BMdAOkPg+O5NJijUvy8mhUI2OATgAASHayi17tIWXl11kg7s2kb9BhdrVUAOBEJKQJ70y4610r5TrYTB6s6b4mjZ2s5P+Hd0t3+X4So3EMAkQDe0UmA2Sv9eTWAi/7p61av/+NcbvAIBFxCQG/0BftJfua+Zlu1qpj24+XfZanUnK+jo1jVdnvfjhPoBww/duMRmAnAAbAZuQ3Ey2LleW87rS57yDQNo5SEHAnYQkA/58fo2Wn+khZZub6Z3DrTQ4Zo2cuZIvx1E/Ctj58rF1Nba4t/FnV+l/m3pXB2OhpIAhgBCST94Zb/NqlXRQ3aXbab1q5fT2E/MCJ510AwCCgLN/KhfUdtK5XyjP3i6jWp5gh+S/wTkxv/x0l/7L3DxlRV8qOziwzjiVgJwANzact3b/U73p7s/+9hPvkO/+Nt02yYDdm8NzoYrgepGohP1rZzbqLKujY5xbsU9X/1xKFv2BFWVG/Xgy+8KWkDdAs4ThAPgvDaxwqLlrESW6yRolG1dv4aee/pxmr7gDo04ZECgRwLyNC838xZeddLY3IvqWtqooVme6olO85P96cY2auFrkKwhUH+qktb96Xumyl40VQB5ZxGwZ72Xs+ocLtb8hSu6UFvZ6PgkuvYXq8gwbri2eMiBAAhYRYCdrGUPL6R9a14y0SiBOvI5V5oogayzCGASoLPaw0prFpsoa6qrpmXfW0j1VcdM1EAWBEAgxATWPvGQ6c1favA6Z9z8Q9yWVhcPB8Bqos7RJ+v5jIJ2nDqwjV5+8BqS7kMkEAAB9xH48On/pA1/+YkVhv/WCiXQ4SwCkc4yB9ZYSEDW+sRynmmis/Z4Oe1dvZT6jJ1OcalZJqogCwIgYBOBlqYGWvXr+2nT339uRYnbWck9nDEB0AqaDtIBB8BBjREEUz5inf+Xs9E2fw2nj9O2Zf9DMYmplFU0llcHoOMoCG0FlSBgCYFjuzbSK99dQPvXvmyJPlbyHc5G4QOtMgR6rCUAB8Bank7TJhsDyd16hqlhrbxZz/73X6E9q5ZQQnoupfYpgiNgChXyIGAhARmyW/PYt2jVr+6jOrMNf9pbtY3f3M0ZazLaU/HIa6wC8EhDdlONOD63hfOAbq4J+FRidl8aNGUh9Z84h7IKx5GsGkACARCwj0BbWytVHdpJBz94nXazY16+6U3upLe8l/4qrtEL9tUKJdlJAA6AnbTtLSubixvBeRDnRZxncQ5O4t0Dk3MHUHxaNkXHhdYRiIiOZjtyKXNwCQ0ovYrEUbEzNdacor3vvkBHy9bw5EmsoLCTfTiU1drcSI01VdRQfZxv/ruouSGou/NWMdOHOEv0IOkJkIyeAIbglQQHwCstSZTOVZl7Npfy30LvVE1Xk4ioaBo65y6aeNe/U1SsKiaS/wXzk9em5/6LPnzmh74faP8FcSUIuIbAKbb0Pc7LOS/lLHOMkFxMAA6AixuPTY/mfDVnGaOTJ/wozkgdCGQVjqV5//GibxJjh1OWvJWu2BWP3Ek735TYS0ggEDYEdnBNH+f8R86HOCO5jAAmAbqswc6am8x/v8xZgv3cxVme9iM4I3VCoPb4YTq+ZzMVTru5k7Pmh9b96WHa8uLvzBVBAwi4i0AGmzuD832ch3OWjYKOckZyCQE4AC5pqLNmyhP//Zz/ylme/EM74M4GuCXJZCnpCUjtW2SpyacP76blj9xhusWqpTZBGQjYTEAePkZy/gJnmXf0PueTnJEcTgBPjQ5voHbmTefXGzj/hHNmu+N46SeBrS8/6ueV/l+27bUnSSZmIYEACPh6IW9kDh9zlsmDRvFHwDP4BOAABJ+xaQmyjO+nnCUW9zBTZeEsf2jjm5ZXv3zjSst1QiEIuJxAPNv/Xc7vcpahASSHEsCkMYc2zFmzCvjvEs4lzjbTHdY119dQXOOJhrjkjDarLK47fkjCLWMyrVVAocdLBMZyZWQ44HOc/+ylinmlLnAAnNuSl7Fpf+Oc41wT3WVZL45XcNugk7ExsRIg0Zr0XGIUnbJGFbSAgBcJSG/AnziP4vwNzogjwBCckjAE4JSWuNCOefx2GWfc/C/kYvQuv3cfiomVB3brUsHAgdYpgyYQ8C6BB7hqj3PGxHMHtTEcAAc1xllTruO/z3EWzxnJQgLTZs6yUNsZVdNnzrZcJxSCgEcJ3Mb1eoYzep4d0sBwABzSEGfNmMp/n+KM2bMWt4s8+d92510WayWaM/8q6tdfpmoggQAI+EFgIV/zaz+uwyU2EEB3jA2Q/SxCZsu+yjnJz+txWQAEvvnQwzShdHIAEv5dGhERQcNHjqIXly6hlpYW/4RwFQiEN4FxXH2ZiIslNCH+HMABCHEDnC1eIvu9xtnenWucUfegWhEZGUkPfOs7dMOiW4JWTl5+Po0YNZreWrGcGhsaglYOFIOAhwhIb+dazhJOGClEBOAAhAh8h2If5/fTOxzDWwMC0uU/dcZM+uFP/4umTp9poMk/URkGuPLqa6m+ro727dtLjY0IDuQfOVwVpgRk6ewczk9zll0HkUJAQBoBKbQErufi/xosE/r2708lY8fRwEGDKS09ndLS0igpSTocvJuSU1JoANc3ISEhJJVsamqi3Tt30JHDh6m+vj4kNqDQ8CbQ3NJM2/YcVEFobKin2ppqOnn8GO3ZsY32795JLc3NKl1+CL3E18iqJ6QQEIADEALo7YqUzTRkS828dseMX8rN77qFN9Dc+VdTdg5WEhoDhQIQcBmBRnZCV2/YYonV4tCWbVpPq1e8RlvWr6PWVsuX8t/Ohv7JEmOhJCACcAACwmX5xT9jjbKrnyVJbvxfeeDfaMq06ZbogxIQAAF3ErDSAWhP4MSxSvrn4idp3ao3qa1N5vFZkg6zFtmlq9oSbVDiNwHMAfAbleUXDmKNT3A2boPo6Gj68te+Tg//8BFfV7/llkIhCICAqwi08FP6gSOVltscz8NqoyeU0rCSsbR721aqOW3J8L2sfJLZsystNxgKuyVgfPPpVjtOdkdANvgZ390F/pyTGei//N2jNHvOPJIlaUggAAIgECwH4BzZtIxMmjhlGlUeOUyHD+4/d9jkr/wWSnwALKMxoRigLByAAIFZdHk+6/kDZ6OIWNLl//gzi2nAQOlMQAIBEACBMwSC7QBIKVFR0VQycTIvfa2nPdvLTNFLjO7jnFeZKoK8/wTgAPjPysorJS72DBOFMrv/9088SdnZmORnwhGyIOBFAnY4AMJNNtgqHllCNdWnad8u4yX9Q1nlLzhbNrlAbETqmgAcgK7ZBOuMTLz8I+c0bQHx8fH06J+fpj59+2lVQA4EQMDDBOxyAAShOAHDSsbxcsEdVHG43IRqKgu/zXmXiRLI+k8Ag8b+s7LqyimsqMBE2QPffhDd/iYAIQsCIGApAXECPvW5eyklLd1Ub/BCdppa5kF5OAD2N6rs9qdOl14+la69/ga1PARBAARAIBgEkjgA1/WfvttU9TWswGhulKkB4SQPB8D+1lbvHyte9pe+/P/stxglggAIgIAfBEomTKaCwUP8uLLLS2RodEKXZ3HCUgLwtCzF2amyeD5azDmLs6x3lV3/VKl42DA6dfIEvbfqHZU8hEAABMKDQBPvTLlt576QVHbIyNG0d+c2k7LvZOFEznWcd3KWQEFIQSAgE9KQgkOgkNU+xFm6/OXDjAQCIAACIBAYAVkRsI7zI5xlzxR5j2QRATgAFoHsoGYRv3+Mc1yH43gLAiAAAiCgIyAOwKc51+rEIdWRAByAjkTM389lFUs5Y4mlOUtoAAEQAIH2BJ7nN9dztnxHovaFhMtr3KSsbWmZwLKCM7r8reUKbSAAAiAgBCRY0B7O6zkjGRLAKgBDgB3Ev8DvMzscw1sQAAEQAAHrCHzbOlXhrQkOgLXtL2tYkUAABEAABIJHYDCrHhk89eGjGQ6AtW0t3VNIIAACIAACwSUgS6uRDAnAATAE2EEcs/47AMFbEAABEAgCgYQg6Aw7lXAArG3yQ9aqgzYQAAEQAIFOCBzo5BgOBUgADkCAwHq4/I0ezuM0CIAACICAGQGJA/CemQpICwE4ANZ+Dn7P6hCpylqm0AYCIAAC7Qn8md8gGFB7IsrXiAOgBNeF2EE+XsB5bBfncRgEQAAEQEBP4CiL3sy5Wq8CkucIoAfgHAnr/n6RVb1unTpoAgEQAAEQYAInOcveKuWgYQ0B9ABYw7G9lmZ+8zRnca5kW8tozkggAAIgAAJ6AstZ9FrOiACoZ3iRJPYCuAiJpQdyWZt8aMURyON8JWdVki02kUAABEDALQSOHDxAp04c15q7hQU/4LyLs+ytspYzksUE4ABYDLQHdeoJgj//8997UI3TIAACIOAcAosf+w2temOZ1qDPs+DvtMKQ848A5gD4xwlXgQAIgAAIgICnCMAB8FRzojIgAAIgAAIg4B8BOAD+ccJVIAACIAACIOApAnAAPNWcqAwIgAAIgAAI+EcADoB/nHAVCIAACIAACHiKABwATzUnKgMCIAACIAAC/hGAA+AfJ1wFAiAAAiAAAp4igDgA9janOg6AvWaiNBAAARAIKQHEAbABP3oAbIDcrohT7V7jJQiAAAiAQOcEJO4/UpAJwAEIMuAO6rGJRQcgeAsCIAACnRA41MkxHLKYABwAi4H2oE62C0YCARAAARDongB+K7vnY8lZOACWYPRbyQq/r8SFIAACIBCeBPZytfeEZ9XtrTUcAHt5P29vcSgNBEAABFxHQH4nMWHahmaDA2AD5HZFbObXG9u9x0sQAAEQAIELCTx94Vu8CxYBOADBItu13m92fQpnQAAEQCCsCcjT/3thTcDGyiMOgI2w2xX1Br+e3u49XoIACIBAuBNoYgCjOW8NdxB21R89AHaRvrCcW/gtZrleyATvQAAEwpvAPVx93Pxt/AzAAbARdruiJB7A9Zzr2h3DSxAAARAIVwK/5Ir/NlwrH6p6wwEIFfkz41yXcvH7Q2cCSgYBEACBkBKQ2f4/4nxfSK0I08IxByD0Dd+HTfgfzjNCbwosAAEQAAHbCBzhkr7E+a+2lYiCLiCAHoALcITkjcwFmMl5PmcsEQxJE6BQEAABGwmc5rK+z7mIM27+NoLvWBR6ADoSCf37kWzCNZyncZbeAckpnJFAAARAwG0EGtlgedKXoc6POC/h/Drnes5IISbwv1J6tutIB8XNAAAAAElFTkSuQmCC;" vertex="1" parent="1">
                    <mxGeometry x="360" y="330" width="70" height="70" as="geometry"/>
                </mxCell>
            </root>
        </mxGraphModel>
    </diagram>
</mxfile>
